M48
; DRILL file KiCad 10.0.1 date 2026-06-18T19:57:29
; FORMAT={-:-/ absolute / metric / decimal}
; #@! TF.CreationDate,2026-06-18T19:57:29+01:00
; #@! TF.GenerationSoftware,Kicad,Pcbnew,10.0.1
; #@! TF.FileFunction,Plated,1,4,PTH
FMAT,2
METRIC
; #@! TA.AperFunction,Plated,PTH,ComponentDrill
T1C0.200
; #@! TA.AperFunction,Plated,PTH,ViaDrill
T2C0.300
; #@! TA.AperFunction,Plated,PTH,ComponentDrill
T3C1.000
; #@! TA.AperFunction,Plated,PTH,ComponentDrill
T4C1.100
; #@! TA.AperFunction,Plated,PTH,ComponentDrill
T5C1.200
; #@! TA.AperFunction,Plated,PTH,ComponentDrill
T6C1.300
%
G90
G05
T1
X167.135Y-91.807
X167.135Y-93.332
X167.897Y-91.045
X167.897Y-92.57
X167.897Y-94.095
X168.66Y-91.807
X168.66Y-93.332
X169.422Y-91.045
X169.422Y-92.57
X169.422Y-94.095
X170.185Y-91.807
X170.185Y-93.332
T2
X112.0Y-92.5
X113.5Y-88.0
X115.0Y-101.5
X116.5Y-65.5
X116.5Y-92.5
X116.5Y-94.0
X118.0Y-99.5
X119.35Y-92.385
X120.931Y-92.569
X122.025Y-106.5
X123.0Y-106.5
X123.162Y-109.838
X124.036Y-109.864
X126.625Y-108.0
X128.0Y-87.25
X128.088Y-92.0
X130.0Y-77.5
X130.4Y-89.5
X133.0Y-78.5
X135.3Y-91.0
X137.5Y-100.0
X140.5Y-97.0
X142.4Y-97.0
X146.01Y-97.87
X151.0Y-96.1
X152.439Y-104.561
X152.5Y-95.5
X152.5Y-127.0
X153.685Y-116.632
X158.24Y-97.7
X158.5Y-103.0
X160.0Y-91.0
X160.0Y-92.5
X160.0Y-94.0
X163.0Y-86.5
X163.0Y-104.5
X163.0Y-110.5
X164.5Y-100.0
X164.5Y-127.0
X170.236Y-104.416
X170.5Y-61.0
X170.5Y-80.5
X170.5Y-106.0
X171.635Y-114.545
X172.0Y-127.0
X172.5Y-104.0
X174.079Y-85.72
T3
X161.335Y-106.545
X163.875Y-106.545
X166.415Y-106.545
X168.955Y-106.545
X171.495Y-106.545
X174.035Y-106.545
T4
X111.71Y-76.45
X114.25Y-76.45
X116.79Y-76.45
T5
X137.5Y-60.5
X137.5Y-80.5
X167.5Y-60.5
X167.5Y-80.5
T6
X121.215Y-65.078
X124.455Y-123.172
X126.295Y-65.078
X129.535Y-123.172
M30
