%TF.GenerationSoftware,KiCad,Pcbnew,10.0.1*%
%TF.CreationDate,2026-06-18T19:59:43+01:00*%
%TF.ProjectId,SMART_DC_MOTOR_DRIVER,534d4152-545f-4444-935f-4d4f544f525f,rev?*%
%TF.SameCoordinates,Original*%
%TF.FileFunction,Legend,Top*%
%TF.FilePolarity,Positive*%
%FSLAX46Y46*%
G04 Gerber Fmt 4.6, Leading zero omitted, Abs format (unit mm)*
G04 Created by KiCad (PCBNEW 10.0.1) date 2026-06-18 19:59:43*
%MOMM*%
%LPD*%
G01*
G04 APERTURE LIST*
%ADD10C,0.187500*%
%ADD11C,0.300000*%
%ADD12C,0.150000*%
%ADD13C,0.100000*%
%ADD14C,0.120000*%
G04 APERTURE END LIST*
D10*
X183685855Y-124306678D02*
X182971569Y-124306678D01*
X182971569Y-124306678D02*
X183159069Y-122806678D01*
X184203712Y-124163821D02*
X184266212Y-124235250D01*
X184266212Y-124235250D02*
X184185855Y-124306678D01*
X184185855Y-124306678D02*
X184123355Y-124235250D01*
X184123355Y-124235250D02*
X184203712Y-124163821D01*
X184203712Y-124163821D02*
X184185855Y-124306678D01*
X184900141Y-124306678D02*
X185087641Y-122806678D01*
X185087641Y-122806678D02*
X185453712Y-123878107D01*
X185453712Y-123878107D02*
X186087641Y-122806678D01*
X186087641Y-122806678D02*
X185900141Y-124306678D01*
X186632284Y-124163821D02*
X186694784Y-124235250D01*
X186694784Y-124235250D02*
X186614427Y-124306678D01*
X186614427Y-124306678D02*
X186551927Y-124235250D01*
X186551927Y-124235250D02*
X186632284Y-124163821D01*
X186632284Y-124163821D02*
X186614427Y-124306678D01*
X188185856Y-124306678D02*
X187775141Y-123592392D01*
X187328713Y-124306678D02*
X187516213Y-122806678D01*
X187516213Y-122806678D02*
X188087641Y-122806678D01*
X188087641Y-122806678D02*
X188221570Y-122878107D01*
X188221570Y-122878107D02*
X188284070Y-122949535D01*
X188284070Y-122949535D02*
X188337641Y-123092392D01*
X188337641Y-123092392D02*
X188310856Y-123306678D01*
X188310856Y-123306678D02*
X188221570Y-123449535D01*
X188221570Y-123449535D02*
X188141213Y-123520964D01*
X188141213Y-123520964D02*
X187989427Y-123592392D01*
X187989427Y-123592392D02*
X187417999Y-123592392D01*
D11*
X174554510Y-121300828D02*
X174554510Y-119800828D01*
X174554510Y-119800828D02*
X174911653Y-119800828D01*
X174911653Y-119800828D02*
X175125939Y-119872257D01*
X175125939Y-119872257D02*
X175268796Y-120015114D01*
X175268796Y-120015114D02*
X175340225Y-120157971D01*
X175340225Y-120157971D02*
X175411653Y-120443685D01*
X175411653Y-120443685D02*
X175411653Y-120657971D01*
X175411653Y-120657971D02*
X175340225Y-120943685D01*
X175340225Y-120943685D02*
X175268796Y-121086542D01*
X175268796Y-121086542D02*
X175125939Y-121229400D01*
X175125939Y-121229400D02*
X174911653Y-121300828D01*
X174911653Y-121300828D02*
X174554510Y-121300828D01*
X176625939Y-121229400D02*
X176483082Y-121300828D01*
X176483082Y-121300828D02*
X176197368Y-121300828D01*
X176197368Y-121300828D02*
X176054510Y-121229400D01*
X176054510Y-121229400D02*
X175983082Y-121086542D01*
X175983082Y-121086542D02*
X175983082Y-120515114D01*
X175983082Y-120515114D02*
X176054510Y-120372257D01*
X176054510Y-120372257D02*
X176197368Y-120300828D01*
X176197368Y-120300828D02*
X176483082Y-120300828D01*
X176483082Y-120300828D02*
X176625939Y-120372257D01*
X176625939Y-120372257D02*
X176697368Y-120515114D01*
X176697368Y-120515114D02*
X176697368Y-120657971D01*
X176697368Y-120657971D02*
X175983082Y-120800828D01*
X177268796Y-121229400D02*
X177411653Y-121300828D01*
X177411653Y-121300828D02*
X177697367Y-121300828D01*
X177697367Y-121300828D02*
X177840224Y-121229400D01*
X177840224Y-121229400D02*
X177911653Y-121086542D01*
X177911653Y-121086542D02*
X177911653Y-121015114D01*
X177911653Y-121015114D02*
X177840224Y-120872257D01*
X177840224Y-120872257D02*
X177697367Y-120800828D01*
X177697367Y-120800828D02*
X177483082Y-120800828D01*
X177483082Y-120800828D02*
X177340224Y-120729400D01*
X177340224Y-120729400D02*
X177268796Y-120586542D01*
X177268796Y-120586542D02*
X177268796Y-120515114D01*
X177268796Y-120515114D02*
X177340224Y-120372257D01*
X177340224Y-120372257D02*
X177483082Y-120300828D01*
X177483082Y-120300828D02*
X177697367Y-120300828D01*
X177697367Y-120300828D02*
X177840224Y-120372257D01*
X178554510Y-121300828D02*
X178554510Y-120300828D01*
X178554510Y-119800828D02*
X178483082Y-119872257D01*
X178483082Y-119872257D02*
X178554510Y-119943685D01*
X178554510Y-119943685D02*
X178625939Y-119872257D01*
X178625939Y-119872257D02*
X178554510Y-119800828D01*
X178554510Y-119800828D02*
X178554510Y-119943685D01*
X179911654Y-120300828D02*
X179911654Y-121515114D01*
X179911654Y-121515114D02*
X179840225Y-121657971D01*
X179840225Y-121657971D02*
X179768796Y-121729400D01*
X179768796Y-121729400D02*
X179625939Y-121800828D01*
X179625939Y-121800828D02*
X179411654Y-121800828D01*
X179411654Y-121800828D02*
X179268796Y-121729400D01*
X179911654Y-121229400D02*
X179768796Y-121300828D01*
X179768796Y-121300828D02*
X179483082Y-121300828D01*
X179483082Y-121300828D02*
X179340225Y-121229400D01*
X179340225Y-121229400D02*
X179268796Y-121157971D01*
X179268796Y-121157971D02*
X179197368Y-121015114D01*
X179197368Y-121015114D02*
X179197368Y-120586542D01*
X179197368Y-120586542D02*
X179268796Y-120443685D01*
X179268796Y-120443685D02*
X179340225Y-120372257D01*
X179340225Y-120372257D02*
X179483082Y-120300828D01*
X179483082Y-120300828D02*
X179768796Y-120300828D01*
X179768796Y-120300828D02*
X179911654Y-120372257D01*
X180625939Y-120300828D02*
X180625939Y-121300828D01*
X180625939Y-120443685D02*
X180697368Y-120372257D01*
X180697368Y-120372257D02*
X180840225Y-120300828D01*
X180840225Y-120300828D02*
X181054511Y-120300828D01*
X181054511Y-120300828D02*
X181197368Y-120372257D01*
X181197368Y-120372257D02*
X181268797Y-120515114D01*
X181268797Y-120515114D02*
X181268797Y-121300828D01*
X182554511Y-121229400D02*
X182411654Y-121300828D01*
X182411654Y-121300828D02*
X182125940Y-121300828D01*
X182125940Y-121300828D02*
X181983082Y-121229400D01*
X181983082Y-121229400D02*
X181911654Y-121086542D01*
X181911654Y-121086542D02*
X181911654Y-120515114D01*
X181911654Y-120515114D02*
X181983082Y-120372257D01*
X181983082Y-120372257D02*
X182125940Y-120300828D01*
X182125940Y-120300828D02*
X182411654Y-120300828D01*
X182411654Y-120300828D02*
X182554511Y-120372257D01*
X182554511Y-120372257D02*
X182625940Y-120515114D01*
X182625940Y-120515114D02*
X182625940Y-120657971D01*
X182625940Y-120657971D02*
X181911654Y-120800828D01*
X183911654Y-121300828D02*
X183911654Y-119800828D01*
X183911654Y-121229400D02*
X183768796Y-121300828D01*
X183768796Y-121300828D02*
X183483082Y-121300828D01*
X183483082Y-121300828D02*
X183340225Y-121229400D01*
X183340225Y-121229400D02*
X183268796Y-121157971D01*
X183268796Y-121157971D02*
X183197368Y-121015114D01*
X183197368Y-121015114D02*
X183197368Y-120586542D01*
X183197368Y-120586542D02*
X183268796Y-120443685D01*
X183268796Y-120443685D02*
X183340225Y-120372257D01*
X183340225Y-120372257D02*
X183483082Y-120300828D01*
X183483082Y-120300828D02*
X183768796Y-120300828D01*
X183768796Y-120300828D02*
X183911654Y-120372257D01*
X185768796Y-121300828D02*
X185768796Y-119800828D01*
X185768796Y-120372257D02*
X185911654Y-120300828D01*
X185911654Y-120300828D02*
X186197368Y-120300828D01*
X186197368Y-120300828D02*
X186340225Y-120372257D01*
X186340225Y-120372257D02*
X186411654Y-120443685D01*
X186411654Y-120443685D02*
X186483082Y-120586542D01*
X186483082Y-120586542D02*
X186483082Y-121015114D01*
X186483082Y-121015114D02*
X186411654Y-121157971D01*
X186411654Y-121157971D02*
X186340225Y-121229400D01*
X186340225Y-121229400D02*
X186197368Y-121300828D01*
X186197368Y-121300828D02*
X185911654Y-121300828D01*
X185911654Y-121300828D02*
X185768796Y-121229400D01*
X186983082Y-120300828D02*
X187340225Y-121300828D01*
X187697368Y-120300828D02*
X187340225Y-121300828D01*
X187340225Y-121300828D02*
X187197368Y-121657971D01*
X187197368Y-121657971D02*
X187125939Y-121729400D01*
X187125939Y-121729400D02*
X186983082Y-121800828D01*
X188268796Y-121157971D02*
X188340225Y-121229400D01*
X188340225Y-121229400D02*
X188268796Y-121300828D01*
X188268796Y-121300828D02*
X188197368Y-121229400D01*
X188197368Y-121229400D02*
X188268796Y-121157971D01*
X188268796Y-121157971D02*
X188268796Y-121300828D01*
X188268796Y-120372257D02*
X188340225Y-120443685D01*
X188340225Y-120443685D02*
X188268796Y-120515114D01*
X188268796Y-120515114D02*
X188197368Y-120443685D01*
X188197368Y-120443685D02*
X188268796Y-120372257D01*
X188268796Y-120372257D02*
X188268796Y-120515114D01*
D12*
X123383333Y-87679580D02*
X123335714Y-87727200D01*
X123335714Y-87727200D02*
X123192857Y-87774819D01*
X123192857Y-87774819D02*
X123097619Y-87774819D01*
X123097619Y-87774819D02*
X122954762Y-87727200D01*
X122954762Y-87727200D02*
X122859524Y-87631961D01*
X122859524Y-87631961D02*
X122811905Y-87536723D01*
X122811905Y-87536723D02*
X122764286Y-87346247D01*
X122764286Y-87346247D02*
X122764286Y-87203390D01*
X122764286Y-87203390D02*
X122811905Y-87012914D01*
X122811905Y-87012914D02*
X122859524Y-86917676D01*
X122859524Y-86917676D02*
X122954762Y-86822438D01*
X122954762Y-86822438D02*
X123097619Y-86774819D01*
X123097619Y-86774819D02*
X123192857Y-86774819D01*
X123192857Y-86774819D02*
X123335714Y-86822438D01*
X123335714Y-86822438D02*
X123383333Y-86870057D01*
X123764286Y-86870057D02*
X123811905Y-86822438D01*
X123811905Y-86822438D02*
X123907143Y-86774819D01*
X123907143Y-86774819D02*
X124145238Y-86774819D01*
X124145238Y-86774819D02*
X124240476Y-86822438D01*
X124240476Y-86822438D02*
X124288095Y-86870057D01*
X124288095Y-86870057D02*
X124335714Y-86965295D01*
X124335714Y-86965295D02*
X124335714Y-87060533D01*
X124335714Y-87060533D02*
X124288095Y-87203390D01*
X124288095Y-87203390D02*
X123716667Y-87774819D01*
X123716667Y-87774819D02*
X124335714Y-87774819D01*
X157739819Y-124533094D02*
X156739819Y-124533094D01*
X156739819Y-124533094D02*
X156739819Y-124294999D01*
X156739819Y-124294999D02*
X156787438Y-124152142D01*
X156787438Y-124152142D02*
X156882676Y-124056904D01*
X156882676Y-124056904D02*
X156977914Y-124009285D01*
X156977914Y-124009285D02*
X157168390Y-123961666D01*
X157168390Y-123961666D02*
X157311247Y-123961666D01*
X157311247Y-123961666D02*
X157501723Y-124009285D01*
X157501723Y-124009285D02*
X157596961Y-124056904D01*
X157596961Y-124056904D02*
X157692200Y-124152142D01*
X157692200Y-124152142D02*
X157739819Y-124294999D01*
X157739819Y-124294999D02*
X157739819Y-124533094D01*
X156835057Y-123580713D02*
X156787438Y-123533094D01*
X156787438Y-123533094D02*
X156739819Y-123437856D01*
X156739819Y-123437856D02*
X156739819Y-123199761D01*
X156739819Y-123199761D02*
X156787438Y-123104523D01*
X156787438Y-123104523D02*
X156835057Y-123056904D01*
X156835057Y-123056904D02*
X156930295Y-123009285D01*
X156930295Y-123009285D02*
X157025533Y-123009285D01*
X157025533Y-123009285D02*
X157168390Y-123056904D01*
X157168390Y-123056904D02*
X157739819Y-123628332D01*
X157739819Y-123628332D02*
X157739819Y-123009285D01*
X123421666Y-70852319D02*
X123421666Y-71566604D01*
X123421666Y-71566604D02*
X123374047Y-71709461D01*
X123374047Y-71709461D02*
X123278809Y-71804700D01*
X123278809Y-71804700D02*
X123135952Y-71852319D01*
X123135952Y-71852319D02*
X123040714Y-71852319D01*
X124421666Y-71852319D02*
X123850238Y-71852319D01*
X124135952Y-71852319D02*
X124135952Y-70852319D01*
X124135952Y-70852319D02*
X124040714Y-70995176D01*
X124040714Y-70995176D02*
X123945476Y-71090414D01*
X123945476Y-71090414D02*
X123850238Y-71138033D01*
X149093333Y-93029580D02*
X149045714Y-93077200D01*
X149045714Y-93077200D02*
X148902857Y-93124819D01*
X148902857Y-93124819D02*
X148807619Y-93124819D01*
X148807619Y-93124819D02*
X148664762Y-93077200D01*
X148664762Y-93077200D02*
X148569524Y-92981961D01*
X148569524Y-92981961D02*
X148521905Y-92886723D01*
X148521905Y-92886723D02*
X148474286Y-92696247D01*
X148474286Y-92696247D02*
X148474286Y-92553390D01*
X148474286Y-92553390D02*
X148521905Y-92362914D01*
X148521905Y-92362914D02*
X148569524Y-92267676D01*
X148569524Y-92267676D02*
X148664762Y-92172438D01*
X148664762Y-92172438D02*
X148807619Y-92124819D01*
X148807619Y-92124819D02*
X148902857Y-92124819D01*
X148902857Y-92124819D02*
X149045714Y-92172438D01*
X149045714Y-92172438D02*
X149093333Y-92220057D01*
X149950476Y-92124819D02*
X149760000Y-92124819D01*
X149760000Y-92124819D02*
X149664762Y-92172438D01*
X149664762Y-92172438D02*
X149617143Y-92220057D01*
X149617143Y-92220057D02*
X149521905Y-92362914D01*
X149521905Y-92362914D02*
X149474286Y-92553390D01*
X149474286Y-92553390D02*
X149474286Y-92934342D01*
X149474286Y-92934342D02*
X149521905Y-93029580D01*
X149521905Y-93029580D02*
X149569524Y-93077200D01*
X149569524Y-93077200D02*
X149664762Y-93124819D01*
X149664762Y-93124819D02*
X149855238Y-93124819D01*
X149855238Y-93124819D02*
X149950476Y-93077200D01*
X149950476Y-93077200D02*
X149998095Y-93029580D01*
X149998095Y-93029580D02*
X150045714Y-92934342D01*
X150045714Y-92934342D02*
X150045714Y-92696247D01*
X150045714Y-92696247D02*
X149998095Y-92601009D01*
X149998095Y-92601009D02*
X149950476Y-92553390D01*
X149950476Y-92553390D02*
X149855238Y-92505771D01*
X149855238Y-92505771D02*
X149664762Y-92505771D01*
X149664762Y-92505771D02*
X149569524Y-92553390D01*
X149569524Y-92553390D02*
X149521905Y-92601009D01*
X149521905Y-92601009D02*
X149474286Y-92696247D01*
X116113095Y-87804819D02*
X116113095Y-88614342D01*
X116113095Y-88614342D02*
X116160714Y-88709580D01*
X116160714Y-88709580D02*
X116208333Y-88757200D01*
X116208333Y-88757200D02*
X116303571Y-88804819D01*
X116303571Y-88804819D02*
X116494047Y-88804819D01*
X116494047Y-88804819D02*
X116589285Y-88757200D01*
X116589285Y-88757200D02*
X116636904Y-88709580D01*
X116636904Y-88709580D02*
X116684523Y-88614342D01*
X116684523Y-88614342D02*
X116684523Y-87804819D01*
X117589285Y-88138152D02*
X117589285Y-88804819D01*
X117351190Y-87757200D02*
X117113095Y-88471485D01*
X117113095Y-88471485D02*
X117732142Y-88471485D01*
X171238095Y-81954819D02*
X171238095Y-82764342D01*
X171238095Y-82764342D02*
X171285714Y-82859580D01*
X171285714Y-82859580D02*
X171333333Y-82907200D01*
X171333333Y-82907200D02*
X171428571Y-82954819D01*
X171428571Y-82954819D02*
X171619047Y-82954819D01*
X171619047Y-82954819D02*
X171714285Y-82907200D01*
X171714285Y-82907200D02*
X171761904Y-82859580D01*
X171761904Y-82859580D02*
X171809523Y-82764342D01*
X171809523Y-82764342D02*
X171809523Y-81954819D01*
X172238095Y-82050057D02*
X172285714Y-82002438D01*
X172285714Y-82002438D02*
X172380952Y-81954819D01*
X172380952Y-81954819D02*
X172619047Y-81954819D01*
X172619047Y-81954819D02*
X172714285Y-82002438D01*
X172714285Y-82002438D02*
X172761904Y-82050057D01*
X172761904Y-82050057D02*
X172809523Y-82145295D01*
X172809523Y-82145295D02*
X172809523Y-82240533D01*
X172809523Y-82240533D02*
X172761904Y-82383390D01*
X172761904Y-82383390D02*
X172190476Y-82954819D01*
X172190476Y-82954819D02*
X172809523Y-82954819D01*
X140333333Y-101539580D02*
X140285714Y-101587200D01*
X140285714Y-101587200D02*
X140142857Y-101634819D01*
X140142857Y-101634819D02*
X140047619Y-101634819D01*
X140047619Y-101634819D02*
X139904762Y-101587200D01*
X139904762Y-101587200D02*
X139809524Y-101491961D01*
X139809524Y-101491961D02*
X139761905Y-101396723D01*
X139761905Y-101396723D02*
X139714286Y-101206247D01*
X139714286Y-101206247D02*
X139714286Y-101063390D01*
X139714286Y-101063390D02*
X139761905Y-100872914D01*
X139761905Y-100872914D02*
X139809524Y-100777676D01*
X139809524Y-100777676D02*
X139904762Y-100682438D01*
X139904762Y-100682438D02*
X140047619Y-100634819D01*
X140047619Y-100634819D02*
X140142857Y-100634819D01*
X140142857Y-100634819D02*
X140285714Y-100682438D01*
X140285714Y-100682438D02*
X140333333Y-100730057D01*
X141238095Y-100634819D02*
X140761905Y-100634819D01*
X140761905Y-100634819D02*
X140714286Y-101111009D01*
X140714286Y-101111009D02*
X140761905Y-101063390D01*
X140761905Y-101063390D02*
X140857143Y-101015771D01*
X140857143Y-101015771D02*
X141095238Y-101015771D01*
X141095238Y-101015771D02*
X141190476Y-101063390D01*
X141190476Y-101063390D02*
X141238095Y-101111009D01*
X141238095Y-101111009D02*
X141285714Y-101206247D01*
X141285714Y-101206247D02*
X141285714Y-101444342D01*
X141285714Y-101444342D02*
X141238095Y-101539580D01*
X141238095Y-101539580D02*
X141190476Y-101587200D01*
X141190476Y-101587200D02*
X141095238Y-101634819D01*
X141095238Y-101634819D02*
X140857143Y-101634819D01*
X140857143Y-101634819D02*
X140761905Y-101587200D01*
X140761905Y-101587200D02*
X140714286Y-101539580D01*
D13*
X151332419Y-70593904D02*
X152141942Y-70593904D01*
X152141942Y-70593904D02*
X152237180Y-70546285D01*
X152237180Y-70546285D02*
X152284800Y-70498666D01*
X152284800Y-70498666D02*
X152332419Y-70403428D01*
X152332419Y-70403428D02*
X152332419Y-70212952D01*
X152332419Y-70212952D02*
X152284800Y-70117714D01*
X152284800Y-70117714D02*
X152237180Y-70070095D01*
X152237180Y-70070095D02*
X152141942Y-70022476D01*
X152141942Y-70022476D02*
X151332419Y-70022476D01*
X152332419Y-69022476D02*
X152332419Y-69593904D01*
X152332419Y-69308190D02*
X151332419Y-69308190D01*
X151332419Y-69308190D02*
X151475276Y-69403428D01*
X151475276Y-69403428D02*
X151570514Y-69498666D01*
X151570514Y-69498666D02*
X151618133Y-69593904D01*
D12*
X132833333Y-79039580D02*
X132785714Y-79087200D01*
X132785714Y-79087200D02*
X132642857Y-79134819D01*
X132642857Y-79134819D02*
X132547619Y-79134819D01*
X132547619Y-79134819D02*
X132404762Y-79087200D01*
X132404762Y-79087200D02*
X132309524Y-78991961D01*
X132309524Y-78991961D02*
X132261905Y-78896723D01*
X132261905Y-78896723D02*
X132214286Y-78706247D01*
X132214286Y-78706247D02*
X132214286Y-78563390D01*
X132214286Y-78563390D02*
X132261905Y-78372914D01*
X132261905Y-78372914D02*
X132309524Y-78277676D01*
X132309524Y-78277676D02*
X132404762Y-78182438D01*
X132404762Y-78182438D02*
X132547619Y-78134819D01*
X132547619Y-78134819D02*
X132642857Y-78134819D01*
X132642857Y-78134819D02*
X132785714Y-78182438D01*
X132785714Y-78182438D02*
X132833333Y-78230057D01*
X133166667Y-78134819D02*
X133785714Y-78134819D01*
X133785714Y-78134819D02*
X133452381Y-78515771D01*
X133452381Y-78515771D02*
X133595238Y-78515771D01*
X133595238Y-78515771D02*
X133690476Y-78563390D01*
X133690476Y-78563390D02*
X133738095Y-78611009D01*
X133738095Y-78611009D02*
X133785714Y-78706247D01*
X133785714Y-78706247D02*
X133785714Y-78944342D01*
X133785714Y-78944342D02*
X133738095Y-79039580D01*
X133738095Y-79039580D02*
X133690476Y-79087200D01*
X133690476Y-79087200D02*
X133595238Y-79134819D01*
X133595238Y-79134819D02*
X133309524Y-79134819D01*
X133309524Y-79134819D02*
X133214286Y-79087200D01*
X133214286Y-79087200D02*
X133166667Y-79039580D01*
X161289819Y-117711666D02*
X160813628Y-118044999D01*
X161289819Y-118283094D02*
X160289819Y-118283094D01*
X160289819Y-118283094D02*
X160289819Y-117902142D01*
X160289819Y-117902142D02*
X160337438Y-117806904D01*
X160337438Y-117806904D02*
X160385057Y-117759285D01*
X160385057Y-117759285D02*
X160480295Y-117711666D01*
X160480295Y-117711666D02*
X160623152Y-117711666D01*
X160623152Y-117711666D02*
X160718390Y-117759285D01*
X160718390Y-117759285D02*
X160766009Y-117806904D01*
X160766009Y-117806904D02*
X160813628Y-117902142D01*
X160813628Y-117902142D02*
X160813628Y-118283094D01*
X160289819Y-116806904D02*
X160289819Y-117283094D01*
X160289819Y-117283094D02*
X160766009Y-117330713D01*
X160766009Y-117330713D02*
X160718390Y-117283094D01*
X160718390Y-117283094D02*
X160670771Y-117187856D01*
X160670771Y-117187856D02*
X160670771Y-116949761D01*
X160670771Y-116949761D02*
X160718390Y-116854523D01*
X160718390Y-116854523D02*
X160766009Y-116806904D01*
X160766009Y-116806904D02*
X160861247Y-116759285D01*
X160861247Y-116759285D02*
X161099342Y-116759285D01*
X161099342Y-116759285D02*
X161194580Y-116806904D01*
X161194580Y-116806904D02*
X161242200Y-116854523D01*
X161242200Y-116854523D02*
X161289819Y-116949761D01*
X161289819Y-116949761D02*
X161289819Y-117187856D01*
X161289819Y-117187856D02*
X161242200Y-117283094D01*
X161242200Y-117283094D02*
X161194580Y-117330713D01*
X192304819Y-126833333D02*
X191828628Y-127166666D01*
X192304819Y-127404761D02*
X191304819Y-127404761D01*
X191304819Y-127404761D02*
X191304819Y-127023809D01*
X191304819Y-127023809D02*
X191352438Y-126928571D01*
X191352438Y-126928571D02*
X191400057Y-126880952D01*
X191400057Y-126880952D02*
X191495295Y-126833333D01*
X191495295Y-126833333D02*
X191638152Y-126833333D01*
X191638152Y-126833333D02*
X191733390Y-126880952D01*
X191733390Y-126880952D02*
X191781009Y-126928571D01*
X191781009Y-126928571D02*
X191828628Y-127023809D01*
X191828628Y-127023809D02*
X191828628Y-127404761D01*
X191781009Y-126404761D02*
X191781009Y-126071428D01*
X192304819Y-125928571D02*
X192304819Y-126404761D01*
X192304819Y-126404761D02*
X191304819Y-126404761D01*
X191304819Y-126404761D02*
X191304819Y-125928571D01*
X191781009Y-125166666D02*
X191781009Y-125499999D01*
X192304819Y-125499999D02*
X191304819Y-125499999D01*
X191304819Y-125499999D02*
X191304819Y-125023809D01*
X191304819Y-124499999D02*
X191542914Y-124499999D01*
X191447676Y-124738094D02*
X191542914Y-124499999D01*
X191542914Y-124499999D02*
X191447676Y-124261904D01*
X191733390Y-124642856D02*
X191542914Y-124499999D01*
X191542914Y-124499999D02*
X191733390Y-124357142D01*
X191304819Y-123738094D02*
X191542914Y-123738094D01*
X191447676Y-123976189D02*
X191542914Y-123738094D01*
X191542914Y-123738094D02*
X191447676Y-123499999D01*
X191733390Y-123880951D02*
X191542914Y-123738094D01*
X191542914Y-123738094D02*
X191733390Y-123595237D01*
X117589580Y-100142857D02*
X117637200Y-100190476D01*
X117637200Y-100190476D02*
X117684819Y-100333333D01*
X117684819Y-100333333D02*
X117684819Y-100428571D01*
X117684819Y-100428571D02*
X117637200Y-100571428D01*
X117637200Y-100571428D02*
X117541961Y-100666666D01*
X117541961Y-100666666D02*
X117446723Y-100714285D01*
X117446723Y-100714285D02*
X117256247Y-100761904D01*
X117256247Y-100761904D02*
X117113390Y-100761904D01*
X117113390Y-100761904D02*
X116922914Y-100714285D01*
X116922914Y-100714285D02*
X116827676Y-100666666D01*
X116827676Y-100666666D02*
X116732438Y-100571428D01*
X116732438Y-100571428D02*
X116684819Y-100428571D01*
X116684819Y-100428571D02*
X116684819Y-100333333D01*
X116684819Y-100333333D02*
X116732438Y-100190476D01*
X116732438Y-100190476D02*
X116780057Y-100142857D01*
X117684819Y-99190476D02*
X117684819Y-99761904D01*
X117684819Y-99476190D02*
X116684819Y-99476190D01*
X116684819Y-99476190D02*
X116827676Y-99571428D01*
X116827676Y-99571428D02*
X116922914Y-99666666D01*
X116922914Y-99666666D02*
X116970533Y-99761904D01*
X116780057Y-98809523D02*
X116732438Y-98761904D01*
X116732438Y-98761904D02*
X116684819Y-98666666D01*
X116684819Y-98666666D02*
X116684819Y-98428571D01*
X116684819Y-98428571D02*
X116732438Y-98333333D01*
X116732438Y-98333333D02*
X116780057Y-98285714D01*
X116780057Y-98285714D02*
X116875295Y-98238095D01*
X116875295Y-98238095D02*
X116970533Y-98238095D01*
X116970533Y-98238095D02*
X117113390Y-98285714D01*
X117113390Y-98285714D02*
X117684819Y-98857142D01*
X117684819Y-98857142D02*
X117684819Y-98238095D01*
X127714286Y-93104819D02*
X128285714Y-93104819D01*
X128000000Y-94104819D02*
X128000000Y-93104819D01*
X128619048Y-94104819D02*
X128619048Y-93104819D01*
X128619048Y-93581009D02*
X129190476Y-93581009D01*
X129190476Y-94104819D02*
X129190476Y-93104819D01*
X130190476Y-94104819D02*
X129619048Y-94104819D01*
X129904762Y-94104819D02*
X129904762Y-93104819D01*
X129904762Y-93104819D02*
X129809524Y-93247676D01*
X129809524Y-93247676D02*
X129714286Y-93342914D01*
X129714286Y-93342914D02*
X129619048Y-93390533D01*
X146989819Y-124783094D02*
X145989819Y-124783094D01*
X145989819Y-124783094D02*
X145989819Y-124544999D01*
X145989819Y-124544999D02*
X146037438Y-124402142D01*
X146037438Y-124402142D02*
X146132676Y-124306904D01*
X146132676Y-124306904D02*
X146227914Y-124259285D01*
X146227914Y-124259285D02*
X146418390Y-124211666D01*
X146418390Y-124211666D02*
X146561247Y-124211666D01*
X146561247Y-124211666D02*
X146751723Y-124259285D01*
X146751723Y-124259285D02*
X146846961Y-124306904D01*
X146846961Y-124306904D02*
X146942200Y-124402142D01*
X146942200Y-124402142D02*
X146989819Y-124544999D01*
X146989819Y-124544999D02*
X146989819Y-124783094D01*
X146323152Y-123354523D02*
X146989819Y-123354523D01*
X145942200Y-123592618D02*
X146656485Y-123830713D01*
X146656485Y-123830713D02*
X146656485Y-123211666D01*
X165430833Y-116649819D02*
X165097500Y-116173628D01*
X164859405Y-116649819D02*
X164859405Y-115649819D01*
X164859405Y-115649819D02*
X165240357Y-115649819D01*
X165240357Y-115649819D02*
X165335595Y-115697438D01*
X165335595Y-115697438D02*
X165383214Y-115745057D01*
X165383214Y-115745057D02*
X165430833Y-115840295D01*
X165430833Y-115840295D02*
X165430833Y-115983152D01*
X165430833Y-115983152D02*
X165383214Y-116078390D01*
X165383214Y-116078390D02*
X165335595Y-116126009D01*
X165335595Y-116126009D02*
X165240357Y-116173628D01*
X165240357Y-116173628D02*
X164859405Y-116173628D01*
X166383214Y-116649819D02*
X165811786Y-116649819D01*
X166097500Y-116649819D02*
X166097500Y-115649819D01*
X166097500Y-115649819D02*
X166002262Y-115792676D01*
X166002262Y-115792676D02*
X165907024Y-115887914D01*
X165907024Y-115887914D02*
X165811786Y-115935533D01*
X153954642Y-86349819D02*
X153621309Y-85873628D01*
X153383214Y-86349819D02*
X153383214Y-85349819D01*
X153383214Y-85349819D02*
X153764166Y-85349819D01*
X153764166Y-85349819D02*
X153859404Y-85397438D01*
X153859404Y-85397438D02*
X153907023Y-85445057D01*
X153907023Y-85445057D02*
X153954642Y-85540295D01*
X153954642Y-85540295D02*
X153954642Y-85683152D01*
X153954642Y-85683152D02*
X153907023Y-85778390D01*
X153907023Y-85778390D02*
X153859404Y-85826009D01*
X153859404Y-85826009D02*
X153764166Y-85873628D01*
X153764166Y-85873628D02*
X153383214Y-85873628D01*
X154907023Y-86349819D02*
X154335595Y-86349819D01*
X154621309Y-86349819D02*
X154621309Y-85349819D01*
X154621309Y-85349819D02*
X154526071Y-85492676D01*
X154526071Y-85492676D02*
X154430833Y-85587914D01*
X154430833Y-85587914D02*
X154335595Y-85635533D01*
X155859404Y-86349819D02*
X155287976Y-86349819D01*
X155573690Y-86349819D02*
X155573690Y-85349819D01*
X155573690Y-85349819D02*
X155478452Y-85492676D01*
X155478452Y-85492676D02*
X155383214Y-85587914D01*
X155383214Y-85587914D02*
X155287976Y-85635533D01*
X158409819Y-106878333D02*
X159124104Y-106878333D01*
X159124104Y-106878333D02*
X159266961Y-106925952D01*
X159266961Y-106925952D02*
X159362200Y-107021190D01*
X159362200Y-107021190D02*
X159409819Y-107164047D01*
X159409819Y-107164047D02*
X159409819Y-107259285D01*
X158505057Y-106449761D02*
X158457438Y-106402142D01*
X158457438Y-106402142D02*
X158409819Y-106306904D01*
X158409819Y-106306904D02*
X158409819Y-106068809D01*
X158409819Y-106068809D02*
X158457438Y-105973571D01*
X158457438Y-105973571D02*
X158505057Y-105925952D01*
X158505057Y-105925952D02*
X158600295Y-105878333D01*
X158600295Y-105878333D02*
X158695533Y-105878333D01*
X158695533Y-105878333D02*
X158838390Y-105925952D01*
X158838390Y-105925952D02*
X159409819Y-106497380D01*
X159409819Y-106497380D02*
X159409819Y-105878333D01*
X155518333Y-104849819D02*
X155185000Y-104373628D01*
X154946905Y-104849819D02*
X154946905Y-103849819D01*
X154946905Y-103849819D02*
X155327857Y-103849819D01*
X155327857Y-103849819D02*
X155423095Y-103897438D01*
X155423095Y-103897438D02*
X155470714Y-103945057D01*
X155470714Y-103945057D02*
X155518333Y-104040295D01*
X155518333Y-104040295D02*
X155518333Y-104183152D01*
X155518333Y-104183152D02*
X155470714Y-104278390D01*
X155470714Y-104278390D02*
X155423095Y-104326009D01*
X155423095Y-104326009D02*
X155327857Y-104373628D01*
X155327857Y-104373628D02*
X154946905Y-104373628D01*
X155851667Y-103849819D02*
X156470714Y-103849819D01*
X156470714Y-103849819D02*
X156137381Y-104230771D01*
X156137381Y-104230771D02*
X156280238Y-104230771D01*
X156280238Y-104230771D02*
X156375476Y-104278390D01*
X156375476Y-104278390D02*
X156423095Y-104326009D01*
X156423095Y-104326009D02*
X156470714Y-104421247D01*
X156470714Y-104421247D02*
X156470714Y-104659342D01*
X156470714Y-104659342D02*
X156423095Y-104754580D01*
X156423095Y-104754580D02*
X156375476Y-104802200D01*
X156375476Y-104802200D02*
X156280238Y-104849819D01*
X156280238Y-104849819D02*
X155994524Y-104849819D01*
X155994524Y-104849819D02*
X155899286Y-104802200D01*
X155899286Y-104802200D02*
X155851667Y-104754580D01*
X166351667Y-126202200D02*
X166494524Y-126249819D01*
X166494524Y-126249819D02*
X166732619Y-126249819D01*
X166732619Y-126249819D02*
X166827857Y-126202200D01*
X166827857Y-126202200D02*
X166875476Y-126154580D01*
X166875476Y-126154580D02*
X166923095Y-126059342D01*
X166923095Y-126059342D02*
X166923095Y-125964104D01*
X166923095Y-125964104D02*
X166875476Y-125868866D01*
X166875476Y-125868866D02*
X166827857Y-125821247D01*
X166827857Y-125821247D02*
X166732619Y-125773628D01*
X166732619Y-125773628D02*
X166542143Y-125726009D01*
X166542143Y-125726009D02*
X166446905Y-125678390D01*
X166446905Y-125678390D02*
X166399286Y-125630771D01*
X166399286Y-125630771D02*
X166351667Y-125535533D01*
X166351667Y-125535533D02*
X166351667Y-125440295D01*
X166351667Y-125440295D02*
X166399286Y-125345057D01*
X166399286Y-125345057D02*
X166446905Y-125297438D01*
X166446905Y-125297438D02*
X166542143Y-125249819D01*
X166542143Y-125249819D02*
X166780238Y-125249819D01*
X166780238Y-125249819D02*
X166923095Y-125297438D01*
X167256429Y-125249819D02*
X167494524Y-126249819D01*
X167494524Y-126249819D02*
X167685000Y-125535533D01*
X167685000Y-125535533D02*
X167875476Y-126249819D01*
X167875476Y-126249819D02*
X168113572Y-125249819D01*
X169018333Y-126249819D02*
X168446905Y-126249819D01*
X168732619Y-126249819D02*
X168732619Y-125249819D01*
X168732619Y-125249819D02*
X168637381Y-125392676D01*
X168637381Y-125392676D02*
X168542143Y-125487914D01*
X168542143Y-125487914D02*
X168446905Y-125535533D01*
X132954819Y-125083333D02*
X133669104Y-125083333D01*
X133669104Y-125083333D02*
X133811961Y-125130952D01*
X133811961Y-125130952D02*
X133907200Y-125226190D01*
X133907200Y-125226190D02*
X133954819Y-125369047D01*
X133954819Y-125369047D02*
X133954819Y-125464285D01*
X132954819Y-124702380D02*
X132954819Y-124083333D01*
X132954819Y-124083333D02*
X133335771Y-124416666D01*
X133335771Y-124416666D02*
X133335771Y-124273809D01*
X133335771Y-124273809D02*
X133383390Y-124178571D01*
X133383390Y-124178571D02*
X133431009Y-124130952D01*
X133431009Y-124130952D02*
X133526247Y-124083333D01*
X133526247Y-124083333D02*
X133764342Y-124083333D01*
X133764342Y-124083333D02*
X133859580Y-124130952D01*
X133859580Y-124130952D02*
X133907200Y-124178571D01*
X133907200Y-124178571D02*
X133954819Y-124273809D01*
X133954819Y-124273809D02*
X133954819Y-124559523D01*
X133954819Y-124559523D02*
X133907200Y-124654761D01*
X133907200Y-124654761D02*
X133859580Y-124702380D01*
X110295833Y-97104819D02*
X109962500Y-96628628D01*
X109724405Y-97104819D02*
X109724405Y-96104819D01*
X109724405Y-96104819D02*
X110105357Y-96104819D01*
X110105357Y-96104819D02*
X110200595Y-96152438D01*
X110200595Y-96152438D02*
X110248214Y-96200057D01*
X110248214Y-96200057D02*
X110295833Y-96295295D01*
X110295833Y-96295295D02*
X110295833Y-96438152D01*
X110295833Y-96438152D02*
X110248214Y-96533390D01*
X110248214Y-96533390D02*
X110200595Y-96581009D01*
X110200595Y-96581009D02*
X110105357Y-96628628D01*
X110105357Y-96628628D02*
X109724405Y-96628628D01*
X110867262Y-96533390D02*
X110772024Y-96485771D01*
X110772024Y-96485771D02*
X110724405Y-96438152D01*
X110724405Y-96438152D02*
X110676786Y-96342914D01*
X110676786Y-96342914D02*
X110676786Y-96295295D01*
X110676786Y-96295295D02*
X110724405Y-96200057D01*
X110724405Y-96200057D02*
X110772024Y-96152438D01*
X110772024Y-96152438D02*
X110867262Y-96104819D01*
X110867262Y-96104819D02*
X111057738Y-96104819D01*
X111057738Y-96104819D02*
X111152976Y-96152438D01*
X111152976Y-96152438D02*
X111200595Y-96200057D01*
X111200595Y-96200057D02*
X111248214Y-96295295D01*
X111248214Y-96295295D02*
X111248214Y-96342914D01*
X111248214Y-96342914D02*
X111200595Y-96438152D01*
X111200595Y-96438152D02*
X111152976Y-96485771D01*
X111152976Y-96485771D02*
X111057738Y-96533390D01*
X111057738Y-96533390D02*
X110867262Y-96533390D01*
X110867262Y-96533390D02*
X110772024Y-96581009D01*
X110772024Y-96581009D02*
X110724405Y-96628628D01*
X110724405Y-96628628D02*
X110676786Y-96723866D01*
X110676786Y-96723866D02*
X110676786Y-96914342D01*
X110676786Y-96914342D02*
X110724405Y-97009580D01*
X110724405Y-97009580D02*
X110772024Y-97057200D01*
X110772024Y-97057200D02*
X110867262Y-97104819D01*
X110867262Y-97104819D02*
X111057738Y-97104819D01*
X111057738Y-97104819D02*
X111152976Y-97057200D01*
X111152976Y-97057200D02*
X111200595Y-97009580D01*
X111200595Y-97009580D02*
X111248214Y-96914342D01*
X111248214Y-96914342D02*
X111248214Y-96723866D01*
X111248214Y-96723866D02*
X111200595Y-96628628D01*
X111200595Y-96628628D02*
X111152976Y-96581009D01*
X111152976Y-96581009D02*
X111057738Y-96533390D01*
X122907142Y-93804819D02*
X122573809Y-93328628D01*
X122335714Y-93804819D02*
X122335714Y-92804819D01*
X122335714Y-92804819D02*
X122716666Y-92804819D01*
X122716666Y-92804819D02*
X122811904Y-92852438D01*
X122811904Y-92852438D02*
X122859523Y-92900057D01*
X122859523Y-92900057D02*
X122907142Y-92995295D01*
X122907142Y-92995295D02*
X122907142Y-93138152D01*
X122907142Y-93138152D02*
X122859523Y-93233390D01*
X122859523Y-93233390D02*
X122811904Y-93281009D01*
X122811904Y-93281009D02*
X122716666Y-93328628D01*
X122716666Y-93328628D02*
X122335714Y-93328628D01*
X123859523Y-93804819D02*
X123288095Y-93804819D01*
X123573809Y-93804819D02*
X123573809Y-92804819D01*
X123573809Y-92804819D02*
X123478571Y-92947676D01*
X123478571Y-92947676D02*
X123383333Y-93042914D01*
X123383333Y-93042914D02*
X123288095Y-93090533D01*
X124478571Y-92804819D02*
X124573809Y-92804819D01*
X124573809Y-92804819D02*
X124669047Y-92852438D01*
X124669047Y-92852438D02*
X124716666Y-92900057D01*
X124716666Y-92900057D02*
X124764285Y-92995295D01*
X124764285Y-92995295D02*
X124811904Y-93185771D01*
X124811904Y-93185771D02*
X124811904Y-93423866D01*
X124811904Y-93423866D02*
X124764285Y-93614342D01*
X124764285Y-93614342D02*
X124716666Y-93709580D01*
X124716666Y-93709580D02*
X124669047Y-93757200D01*
X124669047Y-93757200D02*
X124573809Y-93804819D01*
X124573809Y-93804819D02*
X124478571Y-93804819D01*
X124478571Y-93804819D02*
X124383333Y-93757200D01*
X124383333Y-93757200D02*
X124335714Y-93709580D01*
X124335714Y-93709580D02*
X124288095Y-93614342D01*
X124288095Y-93614342D02*
X124240476Y-93423866D01*
X124240476Y-93423866D02*
X124240476Y-93185771D01*
X124240476Y-93185771D02*
X124288095Y-92995295D01*
X124288095Y-92995295D02*
X124335714Y-92900057D01*
X124335714Y-92900057D02*
X124383333Y-92852438D01*
X124383333Y-92852438D02*
X124478571Y-92804819D01*
X150289819Y-117711666D02*
X149813628Y-118044999D01*
X150289819Y-118283094D02*
X149289819Y-118283094D01*
X149289819Y-118283094D02*
X149289819Y-117902142D01*
X149289819Y-117902142D02*
X149337438Y-117806904D01*
X149337438Y-117806904D02*
X149385057Y-117759285D01*
X149385057Y-117759285D02*
X149480295Y-117711666D01*
X149480295Y-117711666D02*
X149623152Y-117711666D01*
X149623152Y-117711666D02*
X149718390Y-117759285D01*
X149718390Y-117759285D02*
X149766009Y-117806904D01*
X149766009Y-117806904D02*
X149813628Y-117902142D01*
X149813628Y-117902142D02*
X149813628Y-118283094D01*
X149289819Y-117378332D02*
X149289819Y-116711666D01*
X149289819Y-116711666D02*
X150289819Y-117140237D01*
X130954819Y-111261904D02*
X131764342Y-111261904D01*
X131764342Y-111261904D02*
X131859580Y-111214285D01*
X131859580Y-111214285D02*
X131907200Y-111166666D01*
X131907200Y-111166666D02*
X131954819Y-111071428D01*
X131954819Y-111071428D02*
X131954819Y-110880952D01*
X131954819Y-110880952D02*
X131907200Y-110785714D01*
X131907200Y-110785714D02*
X131859580Y-110738095D01*
X131859580Y-110738095D02*
X131764342Y-110690476D01*
X131764342Y-110690476D02*
X130954819Y-110690476D01*
X130954819Y-110309523D02*
X130954819Y-109690476D01*
X130954819Y-109690476D02*
X131335771Y-110023809D01*
X131335771Y-110023809D02*
X131335771Y-109880952D01*
X131335771Y-109880952D02*
X131383390Y-109785714D01*
X131383390Y-109785714D02*
X131431009Y-109738095D01*
X131431009Y-109738095D02*
X131526247Y-109690476D01*
X131526247Y-109690476D02*
X131764342Y-109690476D01*
X131764342Y-109690476D02*
X131859580Y-109738095D01*
X131859580Y-109738095D02*
X131907200Y-109785714D01*
X131907200Y-109785714D02*
X131954819Y-109880952D01*
X131954819Y-109880952D02*
X131954819Y-110166666D01*
X131954819Y-110166666D02*
X131907200Y-110261904D01*
X131907200Y-110261904D02*
X131859580Y-110309523D01*
X170518333Y-116584580D02*
X170470714Y-116632200D01*
X170470714Y-116632200D02*
X170327857Y-116679819D01*
X170327857Y-116679819D02*
X170232619Y-116679819D01*
X170232619Y-116679819D02*
X170089762Y-116632200D01*
X170089762Y-116632200D02*
X169994524Y-116536961D01*
X169994524Y-116536961D02*
X169946905Y-116441723D01*
X169946905Y-116441723D02*
X169899286Y-116251247D01*
X169899286Y-116251247D02*
X169899286Y-116108390D01*
X169899286Y-116108390D02*
X169946905Y-115917914D01*
X169946905Y-115917914D02*
X169994524Y-115822676D01*
X169994524Y-115822676D02*
X170089762Y-115727438D01*
X170089762Y-115727438D02*
X170232619Y-115679819D01*
X170232619Y-115679819D02*
X170327857Y-115679819D01*
X170327857Y-115679819D02*
X170470714Y-115727438D01*
X170470714Y-115727438D02*
X170518333Y-115775057D01*
X170851667Y-115679819D02*
X171518333Y-115679819D01*
X171518333Y-115679819D02*
X171089762Y-116679819D01*
X122833333Y-103609580D02*
X122785714Y-103657200D01*
X122785714Y-103657200D02*
X122642857Y-103704819D01*
X122642857Y-103704819D02*
X122547619Y-103704819D01*
X122547619Y-103704819D02*
X122404762Y-103657200D01*
X122404762Y-103657200D02*
X122309524Y-103561961D01*
X122309524Y-103561961D02*
X122261905Y-103466723D01*
X122261905Y-103466723D02*
X122214286Y-103276247D01*
X122214286Y-103276247D02*
X122214286Y-103133390D01*
X122214286Y-103133390D02*
X122261905Y-102942914D01*
X122261905Y-102942914D02*
X122309524Y-102847676D01*
X122309524Y-102847676D02*
X122404762Y-102752438D01*
X122404762Y-102752438D02*
X122547619Y-102704819D01*
X122547619Y-102704819D02*
X122642857Y-102704819D01*
X122642857Y-102704819D02*
X122785714Y-102752438D01*
X122785714Y-102752438D02*
X122833333Y-102800057D01*
X123309524Y-103704819D02*
X123500000Y-103704819D01*
X123500000Y-103704819D02*
X123595238Y-103657200D01*
X123595238Y-103657200D02*
X123642857Y-103609580D01*
X123642857Y-103609580D02*
X123738095Y-103466723D01*
X123738095Y-103466723D02*
X123785714Y-103276247D01*
X123785714Y-103276247D02*
X123785714Y-102895295D01*
X123785714Y-102895295D02*
X123738095Y-102800057D01*
X123738095Y-102800057D02*
X123690476Y-102752438D01*
X123690476Y-102752438D02*
X123595238Y-102704819D01*
X123595238Y-102704819D02*
X123404762Y-102704819D01*
X123404762Y-102704819D02*
X123309524Y-102752438D01*
X123309524Y-102752438D02*
X123261905Y-102800057D01*
X123261905Y-102800057D02*
X123214286Y-102895295D01*
X123214286Y-102895295D02*
X123214286Y-103133390D01*
X123214286Y-103133390D02*
X123261905Y-103228628D01*
X123261905Y-103228628D02*
X123309524Y-103276247D01*
X123309524Y-103276247D02*
X123404762Y-103323866D01*
X123404762Y-103323866D02*
X123595238Y-103323866D01*
X123595238Y-103323866D02*
X123690476Y-103276247D01*
X123690476Y-103276247D02*
X123738095Y-103228628D01*
X123738095Y-103228628D02*
X123785714Y-103133390D01*
X128745833Y-86054819D02*
X128412500Y-85578628D01*
X128174405Y-86054819D02*
X128174405Y-85054819D01*
X128174405Y-85054819D02*
X128555357Y-85054819D01*
X128555357Y-85054819D02*
X128650595Y-85102438D01*
X128650595Y-85102438D02*
X128698214Y-85150057D01*
X128698214Y-85150057D02*
X128745833Y-85245295D01*
X128745833Y-85245295D02*
X128745833Y-85388152D01*
X128745833Y-85388152D02*
X128698214Y-85483390D01*
X128698214Y-85483390D02*
X128650595Y-85531009D01*
X128650595Y-85531009D02*
X128555357Y-85578628D01*
X128555357Y-85578628D02*
X128174405Y-85578628D01*
X129602976Y-85388152D02*
X129602976Y-86054819D01*
X129364881Y-85007200D02*
X129126786Y-85721485D01*
X129126786Y-85721485D02*
X129745833Y-85721485D01*
X129833333Y-105109580D02*
X129785714Y-105157200D01*
X129785714Y-105157200D02*
X129642857Y-105204819D01*
X129642857Y-105204819D02*
X129547619Y-105204819D01*
X129547619Y-105204819D02*
X129404762Y-105157200D01*
X129404762Y-105157200D02*
X129309524Y-105061961D01*
X129309524Y-105061961D02*
X129261905Y-104966723D01*
X129261905Y-104966723D02*
X129214286Y-104776247D01*
X129214286Y-104776247D02*
X129214286Y-104633390D01*
X129214286Y-104633390D02*
X129261905Y-104442914D01*
X129261905Y-104442914D02*
X129309524Y-104347676D01*
X129309524Y-104347676D02*
X129404762Y-104252438D01*
X129404762Y-104252438D02*
X129547619Y-104204819D01*
X129547619Y-104204819D02*
X129642857Y-104204819D01*
X129642857Y-104204819D02*
X129785714Y-104252438D01*
X129785714Y-104252438D02*
X129833333Y-104300057D01*
X130404762Y-104633390D02*
X130309524Y-104585771D01*
X130309524Y-104585771D02*
X130261905Y-104538152D01*
X130261905Y-104538152D02*
X130214286Y-104442914D01*
X130214286Y-104442914D02*
X130214286Y-104395295D01*
X130214286Y-104395295D02*
X130261905Y-104300057D01*
X130261905Y-104300057D02*
X130309524Y-104252438D01*
X130309524Y-104252438D02*
X130404762Y-104204819D01*
X130404762Y-104204819D02*
X130595238Y-104204819D01*
X130595238Y-104204819D02*
X130690476Y-104252438D01*
X130690476Y-104252438D02*
X130738095Y-104300057D01*
X130738095Y-104300057D02*
X130785714Y-104395295D01*
X130785714Y-104395295D02*
X130785714Y-104442914D01*
X130785714Y-104442914D02*
X130738095Y-104538152D01*
X130738095Y-104538152D02*
X130690476Y-104585771D01*
X130690476Y-104585771D02*
X130595238Y-104633390D01*
X130595238Y-104633390D02*
X130404762Y-104633390D01*
X130404762Y-104633390D02*
X130309524Y-104681009D01*
X130309524Y-104681009D02*
X130261905Y-104728628D01*
X130261905Y-104728628D02*
X130214286Y-104823866D01*
X130214286Y-104823866D02*
X130214286Y-105014342D01*
X130214286Y-105014342D02*
X130261905Y-105109580D01*
X130261905Y-105109580D02*
X130309524Y-105157200D01*
X130309524Y-105157200D02*
X130404762Y-105204819D01*
X130404762Y-105204819D02*
X130595238Y-105204819D01*
X130595238Y-105204819D02*
X130690476Y-105157200D01*
X130690476Y-105157200D02*
X130738095Y-105109580D01*
X130738095Y-105109580D02*
X130785714Y-105014342D01*
X130785714Y-105014342D02*
X130785714Y-104823866D01*
X130785714Y-104823866D02*
X130738095Y-104728628D01*
X130738095Y-104728628D02*
X130690476Y-104681009D01*
X130690476Y-104681009D02*
X130595238Y-104633390D01*
X112857142Y-113559580D02*
X112809523Y-113607200D01*
X112809523Y-113607200D02*
X112666666Y-113654819D01*
X112666666Y-113654819D02*
X112571428Y-113654819D01*
X112571428Y-113654819D02*
X112428571Y-113607200D01*
X112428571Y-113607200D02*
X112333333Y-113511961D01*
X112333333Y-113511961D02*
X112285714Y-113416723D01*
X112285714Y-113416723D02*
X112238095Y-113226247D01*
X112238095Y-113226247D02*
X112238095Y-113083390D01*
X112238095Y-113083390D02*
X112285714Y-112892914D01*
X112285714Y-112892914D02*
X112333333Y-112797676D01*
X112333333Y-112797676D02*
X112428571Y-112702438D01*
X112428571Y-112702438D02*
X112571428Y-112654819D01*
X112571428Y-112654819D02*
X112666666Y-112654819D01*
X112666666Y-112654819D02*
X112809523Y-112702438D01*
X112809523Y-112702438D02*
X112857142Y-112750057D01*
X113809523Y-113654819D02*
X113238095Y-113654819D01*
X113523809Y-113654819D02*
X113523809Y-112654819D01*
X113523809Y-112654819D02*
X113428571Y-112797676D01*
X113428571Y-112797676D02*
X113333333Y-112892914D01*
X113333333Y-112892914D02*
X113238095Y-112940533D01*
X114428571Y-112654819D02*
X114523809Y-112654819D01*
X114523809Y-112654819D02*
X114619047Y-112702438D01*
X114619047Y-112702438D02*
X114666666Y-112750057D01*
X114666666Y-112750057D02*
X114714285Y-112845295D01*
X114714285Y-112845295D02*
X114761904Y-113035771D01*
X114761904Y-113035771D02*
X114761904Y-113273866D01*
X114761904Y-113273866D02*
X114714285Y-113464342D01*
X114714285Y-113464342D02*
X114666666Y-113559580D01*
X114666666Y-113559580D02*
X114619047Y-113607200D01*
X114619047Y-113607200D02*
X114523809Y-113654819D01*
X114523809Y-113654819D02*
X114428571Y-113654819D01*
X114428571Y-113654819D02*
X114333333Y-113607200D01*
X114333333Y-113607200D02*
X114285714Y-113559580D01*
X114285714Y-113559580D02*
X114238095Y-113464342D01*
X114238095Y-113464342D02*
X114190476Y-113273866D01*
X114190476Y-113273866D02*
X114190476Y-113035771D01*
X114190476Y-113035771D02*
X114238095Y-112845295D01*
X114238095Y-112845295D02*
X114285714Y-112750057D01*
X114285714Y-112750057D02*
X114333333Y-112702438D01*
X114333333Y-112702438D02*
X114428571Y-112654819D01*
X192304819Y-63333333D02*
X191828628Y-63666666D01*
X192304819Y-63904761D02*
X191304819Y-63904761D01*
X191304819Y-63904761D02*
X191304819Y-63523809D01*
X191304819Y-63523809D02*
X191352438Y-63428571D01*
X191352438Y-63428571D02*
X191400057Y-63380952D01*
X191400057Y-63380952D02*
X191495295Y-63333333D01*
X191495295Y-63333333D02*
X191638152Y-63333333D01*
X191638152Y-63333333D02*
X191733390Y-63380952D01*
X191733390Y-63380952D02*
X191781009Y-63428571D01*
X191781009Y-63428571D02*
X191828628Y-63523809D01*
X191828628Y-63523809D02*
X191828628Y-63904761D01*
X191781009Y-62904761D02*
X191781009Y-62571428D01*
X192304819Y-62428571D02*
X192304819Y-62904761D01*
X192304819Y-62904761D02*
X191304819Y-62904761D01*
X191304819Y-62904761D02*
X191304819Y-62428571D01*
X191781009Y-61666666D02*
X191781009Y-61999999D01*
X192304819Y-61999999D02*
X191304819Y-61999999D01*
X191304819Y-61999999D02*
X191304819Y-61523809D01*
X191304819Y-60999999D02*
X191542914Y-60999999D01*
X191447676Y-61238094D02*
X191542914Y-60999999D01*
X191542914Y-60999999D02*
X191447676Y-60761904D01*
X191733390Y-61142856D02*
X191542914Y-60999999D01*
X191542914Y-60999999D02*
X191733390Y-60857142D01*
X191304819Y-60238094D02*
X191542914Y-60238094D01*
X191447676Y-60476189D02*
X191542914Y-60238094D01*
X191542914Y-60238094D02*
X191447676Y-59999999D01*
X191733390Y-60380951D02*
X191542914Y-60238094D01*
X191542914Y-60238094D02*
X191733390Y-60095237D01*
X113854819Y-82666666D02*
X113378628Y-82999999D01*
X113854819Y-83238094D02*
X112854819Y-83238094D01*
X112854819Y-83238094D02*
X112854819Y-82857142D01*
X112854819Y-82857142D02*
X112902438Y-82761904D01*
X112902438Y-82761904D02*
X112950057Y-82714285D01*
X112950057Y-82714285D02*
X113045295Y-82666666D01*
X113045295Y-82666666D02*
X113188152Y-82666666D01*
X113188152Y-82666666D02*
X113283390Y-82714285D01*
X113283390Y-82714285D02*
X113331009Y-82761904D01*
X113331009Y-82761904D02*
X113378628Y-82857142D01*
X113378628Y-82857142D02*
X113378628Y-83238094D01*
X112950057Y-82285713D02*
X112902438Y-82238094D01*
X112902438Y-82238094D02*
X112854819Y-82142856D01*
X112854819Y-82142856D02*
X112854819Y-81904761D01*
X112854819Y-81904761D02*
X112902438Y-81809523D01*
X112902438Y-81809523D02*
X112950057Y-81761904D01*
X112950057Y-81761904D02*
X113045295Y-81714285D01*
X113045295Y-81714285D02*
X113140533Y-81714285D01*
X113140533Y-81714285D02*
X113283390Y-81761904D01*
X113283390Y-81761904D02*
X113854819Y-82333332D01*
X113854819Y-82333332D02*
X113854819Y-81714285D01*
X114154761Y-72900057D02*
X114059523Y-72852438D01*
X114059523Y-72852438D02*
X113964285Y-72757200D01*
X113964285Y-72757200D02*
X113821428Y-72614342D01*
X113821428Y-72614342D02*
X113726190Y-72566723D01*
X113726190Y-72566723D02*
X113630952Y-72566723D01*
X113678571Y-72804819D02*
X113583333Y-72757200D01*
X113583333Y-72757200D02*
X113488095Y-72661961D01*
X113488095Y-72661961D02*
X113440476Y-72471485D01*
X113440476Y-72471485D02*
X113440476Y-72138152D01*
X113440476Y-72138152D02*
X113488095Y-71947676D01*
X113488095Y-71947676D02*
X113583333Y-71852438D01*
X113583333Y-71852438D02*
X113678571Y-71804819D01*
X113678571Y-71804819D02*
X113869047Y-71804819D01*
X113869047Y-71804819D02*
X113964285Y-71852438D01*
X113964285Y-71852438D02*
X114059523Y-71947676D01*
X114059523Y-71947676D02*
X114107142Y-72138152D01*
X114107142Y-72138152D02*
X114107142Y-72471485D01*
X114107142Y-72471485D02*
X114059523Y-72661961D01*
X114059523Y-72661961D02*
X113964285Y-72757200D01*
X113964285Y-72757200D02*
X113869047Y-72804819D01*
X113869047Y-72804819D02*
X113678571Y-72804819D01*
X115059523Y-72804819D02*
X114488095Y-72804819D01*
X114773809Y-72804819D02*
X114773809Y-71804819D01*
X114773809Y-71804819D02*
X114678571Y-71947676D01*
X114678571Y-71947676D02*
X114583333Y-72042914D01*
X114583333Y-72042914D02*
X114488095Y-72090533D01*
X152739819Y-124533094D02*
X151739819Y-124533094D01*
X151739819Y-124533094D02*
X151739819Y-124294999D01*
X151739819Y-124294999D02*
X151787438Y-124152142D01*
X151787438Y-124152142D02*
X151882676Y-124056904D01*
X151882676Y-124056904D02*
X151977914Y-124009285D01*
X151977914Y-124009285D02*
X152168390Y-123961666D01*
X152168390Y-123961666D02*
X152311247Y-123961666D01*
X152311247Y-123961666D02*
X152501723Y-124009285D01*
X152501723Y-124009285D02*
X152596961Y-124056904D01*
X152596961Y-124056904D02*
X152692200Y-124152142D01*
X152692200Y-124152142D02*
X152739819Y-124294999D01*
X152739819Y-124294999D02*
X152739819Y-124533094D01*
X151739819Y-123628332D02*
X151739819Y-123009285D01*
X151739819Y-123009285D02*
X152120771Y-123342618D01*
X152120771Y-123342618D02*
X152120771Y-123199761D01*
X152120771Y-123199761D02*
X152168390Y-123104523D01*
X152168390Y-123104523D02*
X152216009Y-123056904D01*
X152216009Y-123056904D02*
X152311247Y-123009285D01*
X152311247Y-123009285D02*
X152549342Y-123009285D01*
X152549342Y-123009285D02*
X152644580Y-123056904D01*
X152644580Y-123056904D02*
X152692200Y-123104523D01*
X152692200Y-123104523D02*
X152739819Y-123199761D01*
X152739819Y-123199761D02*
X152739819Y-123485475D01*
X152739819Y-123485475D02*
X152692200Y-123580713D01*
X152692200Y-123580713D02*
X152644580Y-123628332D01*
X138383333Y-96559580D02*
X138335714Y-96607200D01*
X138335714Y-96607200D02*
X138192857Y-96654819D01*
X138192857Y-96654819D02*
X138097619Y-96654819D01*
X138097619Y-96654819D02*
X137954762Y-96607200D01*
X137954762Y-96607200D02*
X137859524Y-96511961D01*
X137859524Y-96511961D02*
X137811905Y-96416723D01*
X137811905Y-96416723D02*
X137764286Y-96226247D01*
X137764286Y-96226247D02*
X137764286Y-96083390D01*
X137764286Y-96083390D02*
X137811905Y-95892914D01*
X137811905Y-95892914D02*
X137859524Y-95797676D01*
X137859524Y-95797676D02*
X137954762Y-95702438D01*
X137954762Y-95702438D02*
X138097619Y-95654819D01*
X138097619Y-95654819D02*
X138192857Y-95654819D01*
X138192857Y-95654819D02*
X138335714Y-95702438D01*
X138335714Y-95702438D02*
X138383333Y-95750057D01*
X139240476Y-95988152D02*
X139240476Y-96654819D01*
X139002381Y-95607200D02*
X138764286Y-96321485D01*
X138764286Y-96321485D02*
X139383333Y-96321485D01*
X118546905Y-81524819D02*
X118546905Y-80524819D01*
X118546905Y-80524819D02*
X118785000Y-80524819D01*
X118785000Y-80524819D02*
X118927857Y-80572438D01*
X118927857Y-80572438D02*
X119023095Y-80667676D01*
X119023095Y-80667676D02*
X119070714Y-80762914D01*
X119070714Y-80762914D02*
X119118333Y-80953390D01*
X119118333Y-80953390D02*
X119118333Y-81096247D01*
X119118333Y-81096247D02*
X119070714Y-81286723D01*
X119070714Y-81286723D02*
X119023095Y-81381961D01*
X119023095Y-81381961D02*
X118927857Y-81477200D01*
X118927857Y-81477200D02*
X118785000Y-81524819D01*
X118785000Y-81524819D02*
X118546905Y-81524819D01*
X120070714Y-81524819D02*
X119499286Y-81524819D01*
X119785000Y-81524819D02*
X119785000Y-80524819D01*
X119785000Y-80524819D02*
X119689762Y-80667676D01*
X119689762Y-80667676D02*
X119594524Y-80762914D01*
X119594524Y-80762914D02*
X119499286Y-80810533D01*
X121416666Y-74681009D02*
X121083333Y-74681009D01*
X121083333Y-75204819D02*
X121083333Y-74204819D01*
X121083333Y-74204819D02*
X121559523Y-74204819D01*
X122464285Y-75204819D02*
X121892857Y-75204819D01*
X122178571Y-75204819D02*
X122178571Y-74204819D01*
X122178571Y-74204819D02*
X122083333Y-74347676D01*
X122083333Y-74347676D02*
X121988095Y-74442914D01*
X121988095Y-74442914D02*
X121892857Y-74490533D01*
X132659580Y-107642857D02*
X132707200Y-107690476D01*
X132707200Y-107690476D02*
X132754819Y-107833333D01*
X132754819Y-107833333D02*
X132754819Y-107928571D01*
X132754819Y-107928571D02*
X132707200Y-108071428D01*
X132707200Y-108071428D02*
X132611961Y-108166666D01*
X132611961Y-108166666D02*
X132516723Y-108214285D01*
X132516723Y-108214285D02*
X132326247Y-108261904D01*
X132326247Y-108261904D02*
X132183390Y-108261904D01*
X132183390Y-108261904D02*
X131992914Y-108214285D01*
X131992914Y-108214285D02*
X131897676Y-108166666D01*
X131897676Y-108166666D02*
X131802438Y-108071428D01*
X131802438Y-108071428D02*
X131754819Y-107928571D01*
X131754819Y-107928571D02*
X131754819Y-107833333D01*
X131754819Y-107833333D02*
X131802438Y-107690476D01*
X131802438Y-107690476D02*
X131850057Y-107642857D01*
X132754819Y-106690476D02*
X132754819Y-107261904D01*
X132754819Y-106976190D02*
X131754819Y-106976190D01*
X131754819Y-106976190D02*
X131897676Y-107071428D01*
X131897676Y-107071428D02*
X131992914Y-107166666D01*
X131992914Y-107166666D02*
X132040533Y-107261904D01*
X132754819Y-105738095D02*
X132754819Y-106309523D01*
X132754819Y-106023809D02*
X131754819Y-106023809D01*
X131754819Y-106023809D02*
X131897676Y-106119047D01*
X131897676Y-106119047D02*
X131992914Y-106214285D01*
X131992914Y-106214285D02*
X132040533Y-106309523D01*
X155789819Y-117711666D02*
X155313628Y-118044999D01*
X155789819Y-118283094D02*
X154789819Y-118283094D01*
X154789819Y-118283094D02*
X154789819Y-117902142D01*
X154789819Y-117902142D02*
X154837438Y-117806904D01*
X154837438Y-117806904D02*
X154885057Y-117759285D01*
X154885057Y-117759285D02*
X154980295Y-117711666D01*
X154980295Y-117711666D02*
X155123152Y-117711666D01*
X155123152Y-117711666D02*
X155218390Y-117759285D01*
X155218390Y-117759285D02*
X155266009Y-117806904D01*
X155266009Y-117806904D02*
X155313628Y-117902142D01*
X155313628Y-117902142D02*
X155313628Y-118283094D01*
X154789819Y-116854523D02*
X154789819Y-117044999D01*
X154789819Y-117044999D02*
X154837438Y-117140237D01*
X154837438Y-117140237D02*
X154885057Y-117187856D01*
X154885057Y-117187856D02*
X155027914Y-117283094D01*
X155027914Y-117283094D02*
X155218390Y-117330713D01*
X155218390Y-117330713D02*
X155599342Y-117330713D01*
X155599342Y-117330713D02*
X155694580Y-117283094D01*
X155694580Y-117283094D02*
X155742200Y-117235475D01*
X155742200Y-117235475D02*
X155789819Y-117140237D01*
X155789819Y-117140237D02*
X155789819Y-116949761D01*
X155789819Y-116949761D02*
X155742200Y-116854523D01*
X155742200Y-116854523D02*
X155694580Y-116806904D01*
X155694580Y-116806904D02*
X155599342Y-116759285D01*
X155599342Y-116759285D02*
X155361247Y-116759285D01*
X155361247Y-116759285D02*
X155266009Y-116806904D01*
X155266009Y-116806904D02*
X155218390Y-116854523D01*
X155218390Y-116854523D02*
X155170771Y-116949761D01*
X155170771Y-116949761D02*
X155170771Y-117140237D01*
X155170771Y-117140237D02*
X155218390Y-117235475D01*
X155218390Y-117235475D02*
X155266009Y-117283094D01*
X155266009Y-117283094D02*
X155361247Y-117330713D01*
X110954819Y-121333333D02*
X110478628Y-121666666D01*
X110954819Y-121904761D02*
X109954819Y-121904761D01*
X109954819Y-121904761D02*
X109954819Y-121523809D01*
X109954819Y-121523809D02*
X110002438Y-121428571D01*
X110002438Y-121428571D02*
X110050057Y-121380952D01*
X110050057Y-121380952D02*
X110145295Y-121333333D01*
X110145295Y-121333333D02*
X110288152Y-121333333D01*
X110288152Y-121333333D02*
X110383390Y-121380952D01*
X110383390Y-121380952D02*
X110431009Y-121428571D01*
X110431009Y-121428571D02*
X110478628Y-121523809D01*
X110478628Y-121523809D02*
X110478628Y-121904761D01*
X110431009Y-120904761D02*
X110431009Y-120571428D01*
X110954819Y-120428571D02*
X110954819Y-120904761D01*
X110954819Y-120904761D02*
X109954819Y-120904761D01*
X109954819Y-120904761D02*
X109954819Y-120428571D01*
X110431009Y-119666666D02*
X110431009Y-119999999D01*
X110954819Y-119999999D02*
X109954819Y-119999999D01*
X109954819Y-119999999D02*
X109954819Y-119523809D01*
X109954819Y-118999999D02*
X110192914Y-118999999D01*
X110097676Y-119238094D02*
X110192914Y-118999999D01*
X110192914Y-118999999D02*
X110097676Y-118761904D01*
X110383390Y-119142856D02*
X110192914Y-118999999D01*
X110192914Y-118999999D02*
X110383390Y-118857142D01*
X109954819Y-118238094D02*
X110192914Y-118238094D01*
X110097676Y-118476189D02*
X110192914Y-118238094D01*
X110192914Y-118238094D02*
X110097676Y-117999999D01*
X110383390Y-118380951D02*
X110192914Y-118238094D01*
X110192914Y-118238094D02*
X110383390Y-118095237D01*
X111454819Y-68333333D02*
X110978628Y-68666666D01*
X111454819Y-68904761D02*
X110454819Y-68904761D01*
X110454819Y-68904761D02*
X110454819Y-68523809D01*
X110454819Y-68523809D02*
X110502438Y-68428571D01*
X110502438Y-68428571D02*
X110550057Y-68380952D01*
X110550057Y-68380952D02*
X110645295Y-68333333D01*
X110645295Y-68333333D02*
X110788152Y-68333333D01*
X110788152Y-68333333D02*
X110883390Y-68380952D01*
X110883390Y-68380952D02*
X110931009Y-68428571D01*
X110931009Y-68428571D02*
X110978628Y-68523809D01*
X110978628Y-68523809D02*
X110978628Y-68904761D01*
X110931009Y-67904761D02*
X110931009Y-67571428D01*
X111454819Y-67428571D02*
X111454819Y-67904761D01*
X111454819Y-67904761D02*
X110454819Y-67904761D01*
X110454819Y-67904761D02*
X110454819Y-67428571D01*
X110931009Y-66666666D02*
X110931009Y-66999999D01*
X111454819Y-66999999D02*
X110454819Y-66999999D01*
X110454819Y-66999999D02*
X110454819Y-66523809D01*
X110454819Y-65999999D02*
X110692914Y-65999999D01*
X110597676Y-66238094D02*
X110692914Y-65999999D01*
X110692914Y-65999999D02*
X110597676Y-65761904D01*
X110883390Y-66142856D02*
X110692914Y-65999999D01*
X110692914Y-65999999D02*
X110883390Y-65857142D01*
X110454819Y-65238094D02*
X110692914Y-65238094D01*
X110597676Y-65476189D02*
X110692914Y-65238094D01*
X110692914Y-65238094D02*
X110597676Y-64999999D01*
X110883390Y-65380951D02*
X110692914Y-65238094D01*
X110692914Y-65238094D02*
X110883390Y-65095237D01*
X127083333Y-79929580D02*
X127035714Y-79977200D01*
X127035714Y-79977200D02*
X126892857Y-80024819D01*
X126892857Y-80024819D02*
X126797619Y-80024819D01*
X126797619Y-80024819D02*
X126654762Y-79977200D01*
X126654762Y-79977200D02*
X126559524Y-79881961D01*
X126559524Y-79881961D02*
X126511905Y-79786723D01*
X126511905Y-79786723D02*
X126464286Y-79596247D01*
X126464286Y-79596247D02*
X126464286Y-79453390D01*
X126464286Y-79453390D02*
X126511905Y-79262914D01*
X126511905Y-79262914D02*
X126559524Y-79167676D01*
X126559524Y-79167676D02*
X126654762Y-79072438D01*
X126654762Y-79072438D02*
X126797619Y-79024819D01*
X126797619Y-79024819D02*
X126892857Y-79024819D01*
X126892857Y-79024819D02*
X127035714Y-79072438D01*
X127035714Y-79072438D02*
X127083333Y-79120057D01*
X128035714Y-80024819D02*
X127464286Y-80024819D01*
X127750000Y-80024819D02*
X127750000Y-79024819D01*
X127750000Y-79024819D02*
X127654762Y-79167676D01*
X127654762Y-79167676D02*
X127559524Y-79262914D01*
X127559524Y-79262914D02*
X127464286Y-79310533D01*
X110383333Y-92104819D02*
X110050000Y-91628628D01*
X109811905Y-92104819D02*
X109811905Y-91104819D01*
X109811905Y-91104819D02*
X110192857Y-91104819D01*
X110192857Y-91104819D02*
X110288095Y-91152438D01*
X110288095Y-91152438D02*
X110335714Y-91200057D01*
X110335714Y-91200057D02*
X110383333Y-91295295D01*
X110383333Y-91295295D02*
X110383333Y-91438152D01*
X110383333Y-91438152D02*
X110335714Y-91533390D01*
X110335714Y-91533390D02*
X110288095Y-91581009D01*
X110288095Y-91581009D02*
X110192857Y-91628628D01*
X110192857Y-91628628D02*
X109811905Y-91628628D01*
X110859524Y-92104819D02*
X111050000Y-92104819D01*
X111050000Y-92104819D02*
X111145238Y-92057200D01*
X111145238Y-92057200D02*
X111192857Y-92009580D01*
X111192857Y-92009580D02*
X111288095Y-91866723D01*
X111288095Y-91866723D02*
X111335714Y-91676247D01*
X111335714Y-91676247D02*
X111335714Y-91295295D01*
X111335714Y-91295295D02*
X111288095Y-91200057D01*
X111288095Y-91200057D02*
X111240476Y-91152438D01*
X111240476Y-91152438D02*
X111145238Y-91104819D01*
X111145238Y-91104819D02*
X110954762Y-91104819D01*
X110954762Y-91104819D02*
X110859524Y-91152438D01*
X110859524Y-91152438D02*
X110811905Y-91200057D01*
X110811905Y-91200057D02*
X110764286Y-91295295D01*
X110764286Y-91295295D02*
X110764286Y-91533390D01*
X110764286Y-91533390D02*
X110811905Y-91628628D01*
X110811905Y-91628628D02*
X110859524Y-91676247D01*
X110859524Y-91676247D02*
X110954762Y-91723866D01*
X110954762Y-91723866D02*
X111145238Y-91723866D01*
X111145238Y-91723866D02*
X111240476Y-91676247D01*
X111240476Y-91676247D02*
X111288095Y-91628628D01*
X111288095Y-91628628D02*
X111335714Y-91533390D01*
%TO.C,C2*%
D14*
X123288748Y-88265000D02*
X123811252Y-88265000D01*
X123288748Y-89735000D02*
X123811252Y-89735000D01*
%TO.C,D2*%
X157975000Y-122795000D02*
X157975000Y-125480000D01*
X157975000Y-125480000D02*
X159895000Y-125480000D01*
X159895000Y-125480000D02*
X159895000Y-122795000D01*
%TO.C,J1*%
X118555000Y-60357500D02*
X125995000Y-60357500D01*
X118555000Y-70397500D02*
X118555000Y-60357500D01*
X126595000Y-60357500D02*
X128955000Y-60357500D01*
X128955000Y-60357500D02*
X128955000Y-70397500D01*
X128955000Y-60977500D02*
X118555000Y-60977500D01*
X128955000Y-62477500D02*
X118555000Y-62477500D01*
X128955000Y-67377500D02*
X118555000Y-67377500D01*
X128955000Y-70397500D02*
X118555000Y-70397500D01*
X126295000Y-60357500D02*
X125855000Y-59747500D01*
X126735000Y-59747500D01*
X126295000Y-60357500D01*
G36*
X126295000Y-60357500D02*
G01*
X125855000Y-59747500D01*
X126735000Y-59747500D01*
X126295000Y-60357500D01*
G37*
%TO.C,C6*%
X143760000Y-95360000D02*
X144760000Y-95360000D01*
X144260000Y-94860000D02*
X144260000Y-95860000D01*
X145000000Y-94674437D02*
X145000000Y-96360000D01*
X145000000Y-94674437D02*
X146064437Y-93610000D01*
X145000000Y-101065563D02*
X145000000Y-99380000D01*
X145000000Y-101065563D02*
X146064437Y-102130000D01*
X146064437Y-93610000D02*
X153520000Y-93610000D01*
X146064437Y-102130000D02*
X153520000Y-102130000D01*
X153520000Y-93610000D02*
X153520000Y-96360000D01*
X153520000Y-102130000D02*
X153520000Y-99380000D01*
%TO.C,U4*%
X114815000Y-89190000D02*
X118935000Y-89190000D01*
X114815000Y-89285000D02*
X114815000Y-89190000D01*
X114815000Y-94310000D02*
X114815000Y-94215000D01*
X118935000Y-89190000D02*
X118935000Y-89285000D01*
X118935000Y-94215000D02*
X118935000Y-94310000D01*
X118935000Y-94310000D02*
X114815000Y-94310000D01*
X114275000Y-89280000D02*
X114035000Y-88950000D01*
X114515000Y-88950000D01*
X114275000Y-89280000D01*
G36*
X114275000Y-89280000D02*
G01*
X114035000Y-88950000D01*
X114515000Y-88950000D01*
X114275000Y-89280000D01*
G37*
%TO.C,U2*%
X157870000Y-84130000D02*
X157870000Y-85130000D01*
X157870000Y-102370000D02*
X157870000Y-101370000D01*
X158650000Y-84130000D02*
X157870000Y-84130000D01*
X158650000Y-102370000D02*
X157870000Y-102370000D01*
X183610000Y-84130000D02*
X177450000Y-84130000D01*
X183610000Y-84130000D02*
X183610000Y-102370000D01*
X183610000Y-102370000D02*
X177195000Y-102370000D01*
X177225000Y-84125000D02*
X176725000Y-84125000D01*
X176725000Y-83625000D01*
X177225000Y-84125000D01*
G36*
X177225000Y-84125000D02*
G01*
X176725000Y-84125000D01*
X176725000Y-83625000D01*
X177225000Y-84125000D01*
G37*
%TO.C,C5*%
X140761252Y-98765000D02*
X140238748Y-98765000D01*
X140761252Y-100235000D02*
X140238748Y-100235000D01*
%TO.C,U1*%
D13*
X135976000Y-58910000D02*
X169250000Y-58910000D01*
X169250000Y-81770000D01*
X135976000Y-81770000D01*
X135976000Y-58910000D01*
%TO.C,C3*%
D14*
X133261252Y-76265000D02*
X132738748Y-76265000D01*
X133261252Y-77735000D02*
X132738748Y-77735000D01*
%TO.C,R5*%
X158450000Y-117317936D02*
X158450000Y-117772064D01*
X159920000Y-117317936D02*
X159920000Y-117772064D01*
%TO.C,C12*%
X114815000Y-99238748D02*
X114815000Y-99761252D01*
X116285000Y-99238748D02*
X116285000Y-99761252D01*
%TO.C,TH1*%
X129227064Y-91265000D02*
X128772936Y-91265000D01*
X129227064Y-92735000D02*
X128772936Y-92735000D01*
%TO.C,D4*%
X147225000Y-123045000D02*
X147225000Y-125730000D01*
X147225000Y-125730000D02*
X149145000Y-125730000D01*
X149145000Y-125730000D02*
X149145000Y-123045000D01*
%TO.C,R1*%
X165824564Y-113810000D02*
X165370436Y-113810000D01*
X165824564Y-115280000D02*
X165370436Y-115280000D01*
%TO.C,R11*%
X154370436Y-86810000D02*
X154824564Y-86810000D01*
X154370436Y-88280000D02*
X154824564Y-88280000D01*
%TO.C,J2*%
X159955000Y-107925000D02*
X159955000Y-106545000D01*
X161335000Y-107925000D02*
X159955000Y-107925000D01*
X162605000Y-105165000D02*
X175415000Y-105165000D01*
X162605000Y-107925000D02*
X162605000Y-105165000D01*
X162605000Y-107925000D02*
X175415000Y-107925000D01*
X175415000Y-107925000D02*
X175415000Y-105165000D01*
%TO.C,R3*%
X155457936Y-105310000D02*
X155912064Y-105310000D01*
X155457936Y-106780000D02*
X155912064Y-106780000D01*
%TO.C,SW1*%
X164935000Y-123045000D02*
X164935000Y-121045000D01*
X165985000Y-119745000D02*
X166435000Y-119295000D01*
X165985000Y-124345000D02*
X166435000Y-124795000D01*
X168935000Y-119295000D02*
X166435000Y-119295000D01*
X168935000Y-124795000D02*
X166435000Y-124795000D01*
X169385000Y-119745000D02*
X168935000Y-119295000D01*
X169385000Y-124345000D02*
X168935000Y-124795000D01*
X170435000Y-123045000D02*
X170435000Y-121045000D01*
%TO.C,J3*%
X121795000Y-117852500D02*
X132195000Y-117852500D01*
X121795000Y-120872500D02*
X132195000Y-120872500D01*
X121795000Y-125772500D02*
X132195000Y-125772500D01*
X121795000Y-127272500D02*
X132195000Y-127272500D01*
X121795000Y-127892500D02*
X121795000Y-117852500D01*
X124155000Y-127892500D02*
X121795000Y-127892500D01*
X132195000Y-117852500D02*
X132195000Y-127892500D01*
X132195000Y-127892500D02*
X124755000Y-127892500D01*
X124895000Y-128502500D02*
X124015000Y-128502500D01*
X124455000Y-127892500D01*
X124895000Y-128502500D01*
G36*
X124895000Y-128502500D02*
G01*
X124015000Y-128502500D01*
X124455000Y-127892500D01*
X124895000Y-128502500D01*
G37*
%TO.C,R8*%
X110689564Y-94265000D02*
X110235436Y-94265000D01*
X110689564Y-95735000D02*
X110235436Y-95735000D01*
%TO.C,R10*%
X123322936Y-94265000D02*
X123777064Y-94265000D01*
X123322936Y-95735000D02*
X123777064Y-95735000D01*
%TO.C,R7*%
X147450000Y-117317936D02*
X147450000Y-117772064D01*
X148920000Y-117317936D02*
X148920000Y-117772064D01*
%TO.C,U3*%
X120790000Y-108740000D02*
X120965000Y-108740000D01*
X120790000Y-114260000D02*
X120790000Y-108740000D01*
X120965000Y-114260000D02*
X120790000Y-114260000D01*
X129035000Y-108740000D02*
X129210000Y-108740000D01*
X129210000Y-108740000D02*
X129210000Y-114260000D01*
X129210000Y-114260000D02*
X129035000Y-114260000D01*
X120960000Y-115000000D02*
X120490000Y-115340000D01*
X120490000Y-114660000D01*
X120960000Y-115000000D01*
G36*
X120960000Y-115000000D02*
G01*
X120490000Y-115340000D01*
X120490000Y-114660000D01*
X120960000Y-115000000D01*
G37*
%TO.C,C7*%
X170946252Y-113810000D02*
X170423748Y-113810000D01*
X170946252Y-115280000D02*
X170423748Y-115280000D01*
%TO.C,C9*%
X122238748Y-104265000D02*
X122761252Y-104265000D01*
X122238748Y-105735000D02*
X122761252Y-105735000D01*
%TO.C,R4*%
X128685436Y-86515000D02*
X129139564Y-86515000D01*
X128685436Y-87985000D02*
X129139564Y-87985000D01*
%TO.C,C8*%
X126738748Y-104015000D02*
X127261252Y-104015000D01*
X126738748Y-105485000D02*
X127261252Y-105485000D01*
%TO.C,C10*%
X109240000Y-103740000D02*
X109240000Y-106490000D01*
X109240000Y-112260000D02*
X109240000Y-109510000D01*
X116695563Y-103740000D02*
X109240000Y-103740000D01*
X116695563Y-112260000D02*
X109240000Y-112260000D01*
X117760000Y-104804437D02*
X116695563Y-103740000D01*
X117760000Y-104804437D02*
X117760000Y-106490000D01*
X117760000Y-111195563D02*
X116695563Y-112260000D01*
X117760000Y-111195563D02*
X117760000Y-109510000D01*
X118500000Y-111010000D02*
X118500000Y-110010000D01*
X119000000Y-110510000D02*
X118000000Y-110510000D01*
%TO.C,R2*%
X111015000Y-82272936D02*
X111015000Y-82727064D01*
X112485000Y-82272936D02*
X112485000Y-82727064D01*
%TO.C,Q1*%
X109140000Y-73190000D02*
X119360000Y-73190000D01*
X109140000Y-74570000D02*
X119360000Y-74570000D01*
X109140000Y-77810000D02*
X109140000Y-73190000D01*
X112400000Y-73190000D02*
X112400000Y-74570000D01*
X116100000Y-73190000D02*
X116100000Y-74570000D01*
X119360000Y-73190000D02*
X119360000Y-77810000D01*
X119360000Y-77810000D02*
X109140000Y-77810000D01*
%TO.C,D3*%
X152975000Y-122795000D02*
X152975000Y-125480000D01*
X152975000Y-125480000D02*
X154895000Y-125480000D01*
X154895000Y-125480000D02*
X154895000Y-122795000D01*
%TO.C,C4*%
X134290000Y-86740000D02*
X134290000Y-89490000D01*
X134290000Y-95260000D02*
X134290000Y-92510000D01*
X141745563Y-86740000D02*
X134290000Y-86740000D01*
X141745563Y-95260000D02*
X134290000Y-95260000D01*
X142810000Y-87804437D02*
X141745563Y-86740000D01*
X142810000Y-87804437D02*
X142810000Y-89490000D01*
X142810000Y-94195563D02*
X141745563Y-95260000D01*
X142810000Y-94195563D02*
X142810000Y-92510000D01*
X143550000Y-94010000D02*
X143550000Y-93010000D01*
X144050000Y-93510000D02*
X143050000Y-93510000D01*
%TO.C,D1*%
X118270000Y-81890000D02*
X118270000Y-83110000D01*
X118270000Y-83110000D02*
X120085000Y-83110000D01*
X120085000Y-81890000D02*
X118270000Y-81890000D01*
%TO.C,F1*%
X125602064Y-73840000D02*
X124397936Y-73840000D01*
X125602064Y-75660000D02*
X124397936Y-75660000D01*
%TO.C,C11*%
X133240000Y-102740000D02*
X135990000Y-102740000D01*
X133240000Y-110195563D02*
X133240000Y-102740000D01*
X134304437Y-111260000D02*
X133240000Y-110195563D01*
X134304437Y-111260000D02*
X135990000Y-111260000D01*
X134490000Y-112000000D02*
X135490000Y-112000000D01*
X134990000Y-112500000D02*
X134990000Y-111500000D01*
X140695563Y-111260000D02*
X139010000Y-111260000D01*
X140695563Y-111260000D02*
X141760000Y-110195563D01*
X141760000Y-102740000D02*
X139010000Y-102740000D01*
X141760000Y-110195563D02*
X141760000Y-102740000D01*
%TO.C,R6*%
X152950000Y-117317936D02*
X152950000Y-117772064D01*
X154420000Y-117317936D02*
X154420000Y-117772064D01*
%TO.C,C1*%
X126988748Y-80515000D02*
X127511252Y-80515000D01*
X126988748Y-81985000D02*
X127511252Y-81985000D01*
%TO.C,R9*%
X110777064Y-89265000D02*
X110322936Y-89265000D01*
X110777064Y-90735000D02*
X110322936Y-90735000D01*
%TD*%
M02*
