%TF.GenerationSoftware,KiCad,Pcbnew,10.0.1*%
%TF.CreationDate,2026-06-18T19:59:43+01:00*%
%TF.ProjectId,SMART_DC_MOTOR_DRIVER,534d4152-545f-4444-935f-4d4f544f525f,rev?*%
%TF.SameCoordinates,Original*%
%TF.FileFunction,Copper,L3,Inr*%
%TF.FilePolarity,Positive*%
%FSLAX46Y46*%
G04 Gerber Fmt 4.6, Leading zero omitted, Abs format (unit mm)*
G04 Created by KiCad (PCBNEW 10.0.1) date 2026-06-18 19:59:43*
%MOMM*%
%LPD*%
G01*
G04 APERTURE LIST*
G04 Aperture macros list*
%AMRoundRect*
0 Rectangle with rounded corners*
0 $1 Rounding radius*
0 $2 $3 $4 $5 $6 $7 $8 $9 X,Y pos of 4 corners*
0 Add a 4 corners polygon primitive as box body*
4,1,4,$2,$3,$4,$5,$6,$7,$8,$9,$2,$3,0*
0 Add four circle primitives for the rounded corners*
1,1,$1+$1,$2,$3*
1,1,$1+$1,$4,$5*
1,1,$1+$1,$6,$7*
1,1,$1+$1,$8,$9*
0 Add four rect primitives between the rounded corners*
20,1,$1+$1,$2,$3,$4,$5,0*
20,1,$1+$1,$4,$5,$6,$7,0*
20,1,$1+$1,$6,$7,$8,$9,0*
20,1,$1+$1,$8,$9,$2,$3,0*%
%AMFreePoly0*
4,1,33,0.290285,0.956940,0.471397,0.881921,0.634393,0.773010,0.773010,0.634393,0.881921,0.471397,0.956940,0.290285,0.995185,0.098017,0.995185,-0.098017,0.956940,-0.290285,0.881921,-0.471397,0.773010,-0.634393,0.634393,-0.773010,0.471397,-0.881921,0.290285,-0.956940,0.098017,-0.995185,-0.098017,-0.995185,-0.290285,-0.956940,-0.471397,-0.881921,-0.634393,-0.773010,-0.773010,-0.634393,
-0.881921,-0.471397,-0.956940,-0.290285,-0.995185,-0.098017,-0.995185,0.098017,-0.956940,0.290285,-0.881921,0.471397,-0.773010,0.634393,-0.634393,0.773010,-0.471397,0.881921,-0.290285,0.956940,-0.098017,0.995185,0.098017,0.995185,0.290285,0.956940,0.290285,0.956940,$1*%
G04 Aperture macros list end*
%TA.AperFunction,ComponentPad*%
%ADD10RoundRect,0.250000X1.050000X1.050000X-1.050000X1.050000X-1.050000X-1.050000X1.050000X-1.050000X0*%
%TD*%
%TA.AperFunction,ComponentPad*%
%ADD11C,2.600000*%
%TD*%
%TA.AperFunction,HeatsinkPad*%
%ADD12C,0.600000*%
%TD*%
%TA.AperFunction,ComponentPad*%
%ADD13FreePoly0,90.000000*%
%TD*%
%TA.AperFunction,ComponentPad*%
%ADD14R,1.700000X1.700000*%
%TD*%
%TA.AperFunction,ComponentPad*%
%ADD15C,1.700000*%
%TD*%
%TA.AperFunction,ComponentPad*%
%ADD16RoundRect,0.250000X-1.050000X-1.050000X1.050000X-1.050000X1.050000X1.050000X-1.050000X1.050000X0*%
%TD*%
%TA.AperFunction,ComponentPad*%
%ADD17R,1.905000X2.000000*%
%TD*%
%TA.AperFunction,ComponentPad*%
%ADD18O,1.905000X2.000000*%
%TD*%
%TA.AperFunction,ViaPad*%
%ADD19C,0.600000*%
%TD*%
G04 APERTURE END LIST*
D10*
%TO.N,Net-(J1-Pin_1)*%
%TO.C,J1*%
X126295000Y-65077500D03*
D11*
%TO.N,GND*%
X121215000Y-65077500D03*
%TD*%
D12*
%TO.N,GND*%
%TO.C,U2*%
X169422500Y-91045000D03*
X167897500Y-91045000D03*
X170185000Y-91807500D03*
X168660000Y-91807500D03*
X167135000Y-91807500D03*
X169422500Y-92570000D03*
X167897500Y-92570000D03*
X170185000Y-93332500D03*
X168660000Y-93332500D03*
X167135000Y-93332500D03*
X169422500Y-94095000D03*
X167897500Y-94095000D03*
%TD*%
D13*
%TO.N,/12V_PROTECTED*%
%TO.C,U1*%
X137500000Y-80500000D03*
%TO.N,GND*%
X167500000Y-80500000D03*
%TO.N,/3.3 V*%
X137500000Y-60500000D03*
%TO.N,GND*%
X167500000Y-60500000D03*
%TD*%
D14*
%TO.N,/3.3 V*%
%TO.C,J2*%
X161335000Y-106545000D03*
D15*
%TO.N,GND*%
X163875000Y-106545000D03*
%TO.N,/TX*%
X166415000Y-106545000D03*
%TO.N,/RX*%
X168955000Y-106545000D03*
%TO.N,/IO0*%
X171495000Y-106545000D03*
%TO.N,/EN*%
X174035000Y-106545000D03*
%TD*%
D16*
%TO.N,Net-(J3-Pin_1)*%
%TO.C,J3*%
X124455000Y-123172500D03*
D11*
%TO.N,Net-(J3-Pin_2)*%
X129535000Y-123172500D03*
%TD*%
D17*
%TO.N,Net-(Q1-G)*%
%TO.C,Q1*%
X111710000Y-76450000D03*
D18*
%TO.N,/+12V_FUSED*%
X114250000Y-76450000D03*
%TO.N,/12V_PROTECTED*%
X116790000Y-76450000D03*
%TD*%
D19*
%TO.N,*%
X164500000Y-127000000D03*
X115000000Y-101500000D03*
X172000000Y-127000000D03*
X170500000Y-80500000D03*
X170500000Y-61000000D03*
X163000000Y-110500000D03*
X113500000Y-88000000D03*
X112000000Y-92500000D03*
X130000000Y-77500000D03*
X116500000Y-65500000D03*
X137500000Y-100000000D03*
X152500000Y-127000000D03*
%TO.N,GND*%
X146010000Y-97870000D03*
X128087500Y-92000000D03*
X135300000Y-91000000D03*
X119350000Y-92385000D03*
X126625000Y-108000000D03*
%TO.N,/3.3 V*%
X133000000Y-78500000D03*
X130400000Y-89500000D03*
X123000000Y-106500000D03*
X120930735Y-92569265D03*
X174079360Y-85720445D03*
X118000000Y-99500000D03*
X128000000Y-87250000D03*
%TO.N,/SDA*%
X152500000Y-95500000D03*
X116500000Y-92500000D03*
%TO.N,/SCL*%
X164500000Y-100000000D03*
X151000000Y-96100000D03*
X158500000Y-103000000D03*
X116500000Y-94000000D03*
%TO.N,/EN*%
X171635000Y-114545000D03*
%TO.N,/GPIO32*%
X153685000Y-116632500D03*
X160000000Y-94000000D03*
%TO.N,/STBY*%
X142400000Y-97000000D03*
X140500000Y-97000000D03*
%TO.N,/PWMA*%
X163000000Y-86500000D03*
X122025000Y-106500000D03*
%TO.N,/AIN1*%
X124036030Y-109863970D03*
X160000000Y-92500000D03*
%TO.N,/AIN2*%
X160000000Y-91000000D03*
X123161766Y-109838235D03*
%TO.N,/GPIO15*%
X158240000Y-97700000D03*
X152439485Y-104560515D03*
%TO.N,/IO0*%
X170500000Y-106000000D03*
X163000000Y-104500000D03*
%TO.N,/TX*%
X172500000Y-104000000D03*
X170235735Y-104415735D03*
%TD*%
M02*
