%TF.GenerationSoftware,KiCad,Pcbnew,10.0.1*%
%TF.CreationDate,2026-06-18T19:59:43+01:00*%
%TF.ProjectId,SMART_DC_MOTOR_DRIVER,534d4152-545f-4444-935f-4d4f544f525f,rev?*%
%TF.SameCoordinates,Original*%
%TF.FileFunction,Legend,Bot*%
%TF.FilePolarity,Positive*%
%FSLAX46Y46*%
G04 Gerber Fmt 4.6, Leading zero omitted, Abs format (unit mm)*
G04 Created by KiCad (PCBNEW 10.0.1) date 2026-06-18 19:59:43*
%MOMM*%
%LPD*%
G01*
G04 APERTURE LIST*
%ADD10C,0.100000*%
%ADD11C,0.300000*%
G04 APERTURE END LIST*
D10*
X190862782Y-121238665D02*
X190719925Y-121286284D01*
X190719925Y-121286284D02*
X190672306Y-121333903D01*
X190672306Y-121333903D02*
X190624687Y-121429141D01*
X190624687Y-121429141D02*
X190624687Y-121571998D01*
X190624687Y-121571998D02*
X190672306Y-121667236D01*
X190672306Y-121667236D02*
X190719925Y-121714856D01*
X190719925Y-121714856D02*
X190815163Y-121762475D01*
X190815163Y-121762475D02*
X191196115Y-121762475D01*
X191196115Y-121762475D02*
X191196115Y-120762475D01*
X191196115Y-120762475D02*
X190862782Y-120762475D01*
X190862782Y-120762475D02*
X190767544Y-120810094D01*
X190767544Y-120810094D02*
X190719925Y-120857713D01*
X190719925Y-120857713D02*
X190672306Y-120952951D01*
X190672306Y-120952951D02*
X190672306Y-121048189D01*
X190672306Y-121048189D02*
X190719925Y-121143427D01*
X190719925Y-121143427D02*
X190767544Y-121191046D01*
X190767544Y-121191046D02*
X190862782Y-121238665D01*
X190862782Y-121238665D02*
X191196115Y-121238665D01*
X190005639Y-121286284D02*
X190005639Y-121762475D01*
X190338972Y-120762475D02*
X190005639Y-121286284D01*
X190005639Y-121286284D02*
X189672306Y-120762475D01*
X189338972Y-121667236D02*
X189291353Y-121714856D01*
X189291353Y-121714856D02*
X189338972Y-121762475D01*
X189338972Y-121762475D02*
X189386591Y-121714856D01*
X189386591Y-121714856D02*
X189338972Y-121667236D01*
X189338972Y-121667236D02*
X189338972Y-121762475D01*
X189338972Y-121143427D02*
X189291353Y-121191046D01*
X189291353Y-121191046D02*
X189338972Y-121238665D01*
X189338972Y-121238665D02*
X189386591Y-121191046D01*
X189386591Y-121191046D02*
X189338972Y-121143427D01*
X189338972Y-121143427D02*
X189338972Y-121238665D01*
X187624687Y-121762475D02*
X188100877Y-121762475D01*
X188100877Y-121762475D02*
X188100877Y-120762475D01*
X186862782Y-121762475D02*
X186862782Y-121238665D01*
X186862782Y-121238665D02*
X186910401Y-121143427D01*
X186910401Y-121143427D02*
X187005639Y-121095808D01*
X187005639Y-121095808D02*
X187196115Y-121095808D01*
X187196115Y-121095808D02*
X187291353Y-121143427D01*
X186862782Y-121714856D02*
X186958020Y-121762475D01*
X186958020Y-121762475D02*
X187196115Y-121762475D01*
X187196115Y-121762475D02*
X187291353Y-121714856D01*
X187291353Y-121714856D02*
X187338972Y-121619617D01*
X187338972Y-121619617D02*
X187338972Y-121524379D01*
X187338972Y-121524379D02*
X187291353Y-121429141D01*
X187291353Y-121429141D02*
X187196115Y-121381522D01*
X187196115Y-121381522D02*
X186958020Y-121381522D01*
X186958020Y-121381522D02*
X186862782Y-121333903D01*
X186386591Y-121762475D02*
X186386591Y-121095808D01*
X186386591Y-121286284D02*
X186338972Y-121191046D01*
X186338972Y-121191046D02*
X186291353Y-121143427D01*
X186291353Y-121143427D02*
X186196115Y-121095808D01*
X186196115Y-121095808D02*
X186100877Y-121095808D01*
X185767543Y-121762475D02*
X185767543Y-120762475D01*
X185767543Y-121143427D02*
X185672305Y-121095808D01*
X185672305Y-121095808D02*
X185481829Y-121095808D01*
X185481829Y-121095808D02*
X185386591Y-121143427D01*
X185386591Y-121143427D02*
X185338972Y-121191046D01*
X185338972Y-121191046D02*
X185291353Y-121286284D01*
X185291353Y-121286284D02*
X185291353Y-121571998D01*
X185291353Y-121571998D02*
X185338972Y-121667236D01*
X185338972Y-121667236D02*
X185386591Y-121714856D01*
X185386591Y-121714856D02*
X185481829Y-121762475D01*
X185481829Y-121762475D02*
X185672305Y-121762475D01*
X185672305Y-121762475D02*
X185767543Y-121714856D01*
X184862781Y-121762475D02*
X184862781Y-121095808D01*
X184862781Y-120762475D02*
X184910400Y-120810094D01*
X184910400Y-120810094D02*
X184862781Y-120857713D01*
X184862781Y-120857713D02*
X184815162Y-120810094D01*
X184815162Y-120810094D02*
X184862781Y-120762475D01*
X184862781Y-120762475D02*
X184862781Y-120857713D01*
X183624686Y-121762475D02*
X183624686Y-120762475D01*
X183624686Y-120762475D02*
X183291353Y-121476760D01*
X183291353Y-121476760D02*
X182958020Y-120762475D01*
X182958020Y-120762475D02*
X182958020Y-121762475D01*
X182338972Y-121762475D02*
X182434210Y-121714856D01*
X182434210Y-121714856D02*
X182481829Y-121667236D01*
X182481829Y-121667236D02*
X182529448Y-121571998D01*
X182529448Y-121571998D02*
X182529448Y-121286284D01*
X182529448Y-121286284D02*
X182481829Y-121191046D01*
X182481829Y-121191046D02*
X182434210Y-121143427D01*
X182434210Y-121143427D02*
X182338972Y-121095808D01*
X182338972Y-121095808D02*
X182196115Y-121095808D01*
X182196115Y-121095808D02*
X182100877Y-121143427D01*
X182100877Y-121143427D02*
X182053258Y-121191046D01*
X182053258Y-121191046D02*
X182005639Y-121286284D01*
X182005639Y-121286284D02*
X182005639Y-121571998D01*
X182005639Y-121571998D02*
X182053258Y-121667236D01*
X182053258Y-121667236D02*
X182100877Y-121714856D01*
X182100877Y-121714856D02*
X182196115Y-121762475D01*
X182196115Y-121762475D02*
X182338972Y-121762475D01*
X181577067Y-121762475D02*
X181577067Y-120762475D01*
X181148496Y-121762475D02*
X181148496Y-121238665D01*
X181148496Y-121238665D02*
X181196115Y-121143427D01*
X181196115Y-121143427D02*
X181291353Y-121095808D01*
X181291353Y-121095808D02*
X181434210Y-121095808D01*
X181434210Y-121095808D02*
X181529448Y-121143427D01*
X181529448Y-121143427D02*
X181577067Y-121191046D01*
X180243734Y-121762475D02*
X180243734Y-121238665D01*
X180243734Y-121238665D02*
X180291353Y-121143427D01*
X180291353Y-121143427D02*
X180386591Y-121095808D01*
X180386591Y-121095808D02*
X180577067Y-121095808D01*
X180577067Y-121095808D02*
X180672305Y-121143427D01*
X180243734Y-121714856D02*
X180338972Y-121762475D01*
X180338972Y-121762475D02*
X180577067Y-121762475D01*
X180577067Y-121762475D02*
X180672305Y-121714856D01*
X180672305Y-121714856D02*
X180719924Y-121619617D01*
X180719924Y-121619617D02*
X180719924Y-121524379D01*
X180719924Y-121524379D02*
X180672305Y-121429141D01*
X180672305Y-121429141D02*
X180577067Y-121381522D01*
X180577067Y-121381522D02*
X180338972Y-121381522D01*
X180338972Y-121381522D02*
X180243734Y-121333903D01*
X179767543Y-121762475D02*
X179767543Y-121095808D01*
X179767543Y-121191046D02*
X179719924Y-121143427D01*
X179719924Y-121143427D02*
X179624686Y-121095808D01*
X179624686Y-121095808D02*
X179481829Y-121095808D01*
X179481829Y-121095808D02*
X179386591Y-121143427D01*
X179386591Y-121143427D02*
X179338972Y-121238665D01*
X179338972Y-121238665D02*
X179338972Y-121762475D01*
X179338972Y-121238665D02*
X179291353Y-121143427D01*
X179291353Y-121143427D02*
X179196115Y-121095808D01*
X179196115Y-121095808D02*
X179053258Y-121095808D01*
X179053258Y-121095808D02*
X178958019Y-121143427D01*
X178958019Y-121143427D02*
X178910400Y-121238665D01*
X178910400Y-121238665D02*
X178910400Y-121762475D01*
X178053258Y-121714856D02*
X178148496Y-121762475D01*
X178148496Y-121762475D02*
X178338972Y-121762475D01*
X178338972Y-121762475D02*
X178434210Y-121714856D01*
X178434210Y-121714856D02*
X178481829Y-121619617D01*
X178481829Y-121619617D02*
X178481829Y-121238665D01*
X178481829Y-121238665D02*
X178434210Y-121143427D01*
X178434210Y-121143427D02*
X178338972Y-121095808D01*
X178338972Y-121095808D02*
X178148496Y-121095808D01*
X178148496Y-121095808D02*
X178053258Y-121143427D01*
X178053258Y-121143427D02*
X178005639Y-121238665D01*
X178005639Y-121238665D02*
X178005639Y-121333903D01*
X178005639Y-121333903D02*
X178481829Y-121429141D01*
X177148496Y-121762475D02*
X177148496Y-120762475D01*
X177148496Y-121714856D02*
X177243734Y-121762475D01*
X177243734Y-121762475D02*
X177434210Y-121762475D01*
X177434210Y-121762475D02*
X177529448Y-121714856D01*
X177529448Y-121714856D02*
X177577067Y-121667236D01*
X177577067Y-121667236D02*
X177624686Y-121571998D01*
X177624686Y-121571998D02*
X177624686Y-121286284D01*
X177624686Y-121286284D02*
X177577067Y-121191046D01*
X177577067Y-121191046D02*
X177529448Y-121143427D01*
X177529448Y-121143427D02*
X177434210Y-121095808D01*
X177434210Y-121095808D02*
X177243734Y-121095808D01*
X177243734Y-121095808D02*
X177148496Y-121143427D01*
X175338972Y-121762475D02*
X175672305Y-121286284D01*
X175910400Y-121762475D02*
X175910400Y-120762475D01*
X175910400Y-120762475D02*
X175529448Y-120762475D01*
X175529448Y-120762475D02*
X175434210Y-120810094D01*
X175434210Y-120810094D02*
X175386591Y-120857713D01*
X175386591Y-120857713D02*
X175338972Y-120952951D01*
X175338972Y-120952951D02*
X175338972Y-121095808D01*
X175338972Y-121095808D02*
X175386591Y-121191046D01*
X175386591Y-121191046D02*
X175434210Y-121238665D01*
X175434210Y-121238665D02*
X175529448Y-121286284D01*
X175529448Y-121286284D02*
X175910400Y-121286284D01*
X174529448Y-121714856D02*
X174624686Y-121762475D01*
X174624686Y-121762475D02*
X174815162Y-121762475D01*
X174815162Y-121762475D02*
X174910400Y-121714856D01*
X174910400Y-121714856D02*
X174958019Y-121619617D01*
X174958019Y-121619617D02*
X174958019Y-121238665D01*
X174958019Y-121238665D02*
X174910400Y-121143427D01*
X174910400Y-121143427D02*
X174815162Y-121095808D01*
X174815162Y-121095808D02*
X174624686Y-121095808D01*
X174624686Y-121095808D02*
X174529448Y-121143427D01*
X174529448Y-121143427D02*
X174481829Y-121238665D01*
X174481829Y-121238665D02*
X174481829Y-121333903D01*
X174481829Y-121333903D02*
X174958019Y-121429141D01*
X173624686Y-121762475D02*
X173624686Y-120762475D01*
X173624686Y-121714856D02*
X173719924Y-121762475D01*
X173719924Y-121762475D02*
X173910400Y-121762475D01*
X173910400Y-121762475D02*
X174005638Y-121714856D01*
X174005638Y-121714856D02*
X174053257Y-121667236D01*
X174053257Y-121667236D02*
X174100876Y-121571998D01*
X174100876Y-121571998D02*
X174100876Y-121286284D01*
X174100876Y-121286284D02*
X174053257Y-121191046D01*
X174053257Y-121191046D02*
X174005638Y-121143427D01*
X174005638Y-121143427D02*
X173910400Y-121095808D01*
X173910400Y-121095808D02*
X173719924Y-121095808D01*
X173719924Y-121095808D02*
X173624686Y-121143427D01*
X173148495Y-121762475D02*
X173148495Y-120762475D01*
X172719924Y-121762475D02*
X172719924Y-121238665D01*
X172719924Y-121238665D02*
X172767543Y-121143427D01*
X172767543Y-121143427D02*
X172862781Y-121095808D01*
X172862781Y-121095808D02*
X173005638Y-121095808D01*
X173005638Y-121095808D02*
X173100876Y-121143427D01*
X173100876Y-121143427D02*
X173148495Y-121191046D01*
X171815162Y-121762475D02*
X171815162Y-121238665D01*
X171815162Y-121238665D02*
X171862781Y-121143427D01*
X171862781Y-121143427D02*
X171958019Y-121095808D01*
X171958019Y-121095808D02*
X172148495Y-121095808D01*
X172148495Y-121095808D02*
X172243733Y-121143427D01*
X171815162Y-121714856D02*
X171910400Y-121762475D01*
X171910400Y-121762475D02*
X172148495Y-121762475D01*
X172148495Y-121762475D02*
X172243733Y-121714856D01*
X172243733Y-121714856D02*
X172291352Y-121619617D01*
X172291352Y-121619617D02*
X172291352Y-121524379D01*
X172291352Y-121524379D02*
X172243733Y-121429141D01*
X172243733Y-121429141D02*
X172148495Y-121381522D01*
X172148495Y-121381522D02*
X171910400Y-121381522D01*
X171910400Y-121381522D02*
X171815162Y-121333903D01*
X190672306Y-123372419D02*
X191243734Y-123372419D01*
X190958020Y-123372419D02*
X190958020Y-122372419D01*
X190958020Y-122372419D02*
X191053258Y-122515276D01*
X191053258Y-122515276D02*
X191148496Y-122610514D01*
X191148496Y-122610514D02*
X191243734Y-122658133D01*
X190100877Y-122800990D02*
X190196115Y-122753371D01*
X190196115Y-122753371D02*
X190243734Y-122705752D01*
X190243734Y-122705752D02*
X190291353Y-122610514D01*
X190291353Y-122610514D02*
X190291353Y-122562895D01*
X190291353Y-122562895D02*
X190243734Y-122467657D01*
X190243734Y-122467657D02*
X190196115Y-122420038D01*
X190196115Y-122420038D02*
X190100877Y-122372419D01*
X190100877Y-122372419D02*
X189910401Y-122372419D01*
X189910401Y-122372419D02*
X189815163Y-122420038D01*
X189815163Y-122420038D02*
X189767544Y-122467657D01*
X189767544Y-122467657D02*
X189719925Y-122562895D01*
X189719925Y-122562895D02*
X189719925Y-122610514D01*
X189719925Y-122610514D02*
X189767544Y-122705752D01*
X189767544Y-122705752D02*
X189815163Y-122753371D01*
X189815163Y-122753371D02*
X189910401Y-122800990D01*
X189910401Y-122800990D02*
X190100877Y-122800990D01*
X190100877Y-122800990D02*
X190196115Y-122848609D01*
X190196115Y-122848609D02*
X190243734Y-122896228D01*
X190243734Y-122896228D02*
X190291353Y-122991466D01*
X190291353Y-122991466D02*
X190291353Y-123181942D01*
X190291353Y-123181942D02*
X190243734Y-123277180D01*
X190243734Y-123277180D02*
X190196115Y-123324800D01*
X190196115Y-123324800D02*
X190100877Y-123372419D01*
X190100877Y-123372419D02*
X189910401Y-123372419D01*
X189910401Y-123372419D02*
X189815163Y-123324800D01*
X189815163Y-123324800D02*
X189767544Y-123277180D01*
X189767544Y-123277180D02*
X189719925Y-123181942D01*
X189719925Y-123181942D02*
X189719925Y-122991466D01*
X189719925Y-122991466D02*
X189767544Y-122896228D01*
X189767544Y-122896228D02*
X189815163Y-122848609D01*
X189815163Y-122848609D02*
X189910401Y-122800990D01*
X188577068Y-122324800D02*
X189434210Y-123610514D01*
X188053258Y-122372419D02*
X187958020Y-122372419D01*
X187958020Y-122372419D02*
X187862782Y-122420038D01*
X187862782Y-122420038D02*
X187815163Y-122467657D01*
X187815163Y-122467657D02*
X187767544Y-122562895D01*
X187767544Y-122562895D02*
X187719925Y-122753371D01*
X187719925Y-122753371D02*
X187719925Y-122991466D01*
X187719925Y-122991466D02*
X187767544Y-123181942D01*
X187767544Y-123181942D02*
X187815163Y-123277180D01*
X187815163Y-123277180D02*
X187862782Y-123324800D01*
X187862782Y-123324800D02*
X187958020Y-123372419D01*
X187958020Y-123372419D02*
X188053258Y-123372419D01*
X188053258Y-123372419D02*
X188148496Y-123324800D01*
X188148496Y-123324800D02*
X188196115Y-123277180D01*
X188196115Y-123277180D02*
X188243734Y-123181942D01*
X188243734Y-123181942D02*
X188291353Y-122991466D01*
X188291353Y-122991466D02*
X188291353Y-122753371D01*
X188291353Y-122753371D02*
X188243734Y-122562895D01*
X188243734Y-122562895D02*
X188196115Y-122467657D01*
X188196115Y-122467657D02*
X188148496Y-122420038D01*
X188148496Y-122420038D02*
X188053258Y-122372419D01*
X186862782Y-122372419D02*
X187053258Y-122372419D01*
X187053258Y-122372419D02*
X187148496Y-122420038D01*
X187148496Y-122420038D02*
X187196115Y-122467657D01*
X187196115Y-122467657D02*
X187291353Y-122610514D01*
X187291353Y-122610514D02*
X187338972Y-122800990D01*
X187338972Y-122800990D02*
X187338972Y-123181942D01*
X187338972Y-123181942D02*
X187291353Y-123277180D01*
X187291353Y-123277180D02*
X187243734Y-123324800D01*
X187243734Y-123324800D02*
X187148496Y-123372419D01*
X187148496Y-123372419D02*
X186958020Y-123372419D01*
X186958020Y-123372419D02*
X186862782Y-123324800D01*
X186862782Y-123324800D02*
X186815163Y-123277180D01*
X186815163Y-123277180D02*
X186767544Y-123181942D01*
X186767544Y-123181942D02*
X186767544Y-122943847D01*
X186767544Y-122943847D02*
X186815163Y-122848609D01*
X186815163Y-122848609D02*
X186862782Y-122800990D01*
X186862782Y-122800990D02*
X186958020Y-122753371D01*
X186958020Y-122753371D02*
X187148496Y-122753371D01*
X187148496Y-122753371D02*
X187243734Y-122800990D01*
X187243734Y-122800990D02*
X187291353Y-122848609D01*
X187291353Y-122848609D02*
X187338972Y-122943847D01*
X185624687Y-122324800D02*
X186481829Y-123610514D01*
X185338972Y-122467657D02*
X185291353Y-122420038D01*
X185291353Y-122420038D02*
X185196115Y-122372419D01*
X185196115Y-122372419D02*
X184958020Y-122372419D01*
X184958020Y-122372419D02*
X184862782Y-122420038D01*
X184862782Y-122420038D02*
X184815163Y-122467657D01*
X184815163Y-122467657D02*
X184767544Y-122562895D01*
X184767544Y-122562895D02*
X184767544Y-122658133D01*
X184767544Y-122658133D02*
X184815163Y-122800990D01*
X184815163Y-122800990D02*
X185386591Y-123372419D01*
X185386591Y-123372419D02*
X184767544Y-123372419D01*
X183910401Y-122372419D02*
X184100877Y-122372419D01*
X184100877Y-122372419D02*
X184196115Y-122420038D01*
X184196115Y-122420038D02*
X184243734Y-122467657D01*
X184243734Y-122467657D02*
X184338972Y-122610514D01*
X184338972Y-122610514D02*
X184386591Y-122800990D01*
X184386591Y-122800990D02*
X184386591Y-123181942D01*
X184386591Y-123181942D02*
X184338972Y-123277180D01*
X184338972Y-123277180D02*
X184291353Y-123324800D01*
X184291353Y-123324800D02*
X184196115Y-123372419D01*
X184196115Y-123372419D02*
X184005639Y-123372419D01*
X184005639Y-123372419D02*
X183910401Y-123324800D01*
X183910401Y-123324800D02*
X183862782Y-123277180D01*
X183862782Y-123277180D02*
X183815163Y-123181942D01*
X183815163Y-123181942D02*
X183815163Y-122943847D01*
X183815163Y-122943847D02*
X183862782Y-122848609D01*
X183862782Y-122848609D02*
X183910401Y-122800990D01*
X183910401Y-122800990D02*
X184005639Y-122753371D01*
X184005639Y-122753371D02*
X184196115Y-122753371D01*
X184196115Y-122753371D02*
X184291353Y-122800990D01*
X184291353Y-122800990D02*
X184338972Y-122848609D01*
X184338972Y-122848609D02*
X184386591Y-122943847D01*
D11*
X181731203Y-74974400D02*
X181302632Y-75117257D01*
X181302632Y-75117257D02*
X180588346Y-75117257D01*
X180588346Y-75117257D02*
X180302632Y-74974400D01*
X180302632Y-74974400D02*
X180159774Y-74831542D01*
X180159774Y-74831542D02*
X180016917Y-74545828D01*
X180016917Y-74545828D02*
X180016917Y-74260114D01*
X180016917Y-74260114D02*
X180159774Y-73974400D01*
X180159774Y-73974400D02*
X180302632Y-73831542D01*
X180302632Y-73831542D02*
X180588346Y-73688685D01*
X180588346Y-73688685D02*
X181159774Y-73545828D01*
X181159774Y-73545828D02*
X181445489Y-73402971D01*
X181445489Y-73402971D02*
X181588346Y-73260114D01*
X181588346Y-73260114D02*
X181731203Y-72974400D01*
X181731203Y-72974400D02*
X181731203Y-72688685D01*
X181731203Y-72688685D02*
X181588346Y-72402971D01*
X181588346Y-72402971D02*
X181445489Y-72260114D01*
X181445489Y-72260114D02*
X181159774Y-72117257D01*
X181159774Y-72117257D02*
X180445489Y-72117257D01*
X180445489Y-72117257D02*
X180016917Y-72260114D01*
X178731203Y-75117257D02*
X178731203Y-72117257D01*
X178731203Y-72117257D02*
X177731203Y-74260114D01*
X177731203Y-74260114D02*
X176731203Y-72117257D01*
X176731203Y-72117257D02*
X176731203Y-75117257D01*
X175445489Y-74260114D02*
X174016918Y-74260114D01*
X175731203Y-75117257D02*
X174731203Y-72117257D01*
X174731203Y-72117257D02*
X173731203Y-75117257D01*
X171016917Y-75117257D02*
X172016917Y-73688685D01*
X172731203Y-75117257D02*
X172731203Y-72117257D01*
X172731203Y-72117257D02*
X171588346Y-72117257D01*
X171588346Y-72117257D02*
X171302631Y-72260114D01*
X171302631Y-72260114D02*
X171159774Y-72402971D01*
X171159774Y-72402971D02*
X171016917Y-72688685D01*
X171016917Y-72688685D02*
X171016917Y-73117257D01*
X171016917Y-73117257D02*
X171159774Y-73402971D01*
X171159774Y-73402971D02*
X171302631Y-73545828D01*
X171302631Y-73545828D02*
X171588346Y-73688685D01*
X171588346Y-73688685D02*
X172731203Y-73688685D01*
X170159774Y-72117257D02*
X168445489Y-72117257D01*
X169302631Y-75117257D02*
X169302631Y-72117257D01*
X168159775Y-75402971D02*
X165874060Y-75402971D01*
X165159775Y-75117257D02*
X165159775Y-72117257D01*
X165159775Y-72117257D02*
X164445489Y-72117257D01*
X164445489Y-72117257D02*
X164016918Y-72260114D01*
X164016918Y-72260114D02*
X163731203Y-72545828D01*
X163731203Y-72545828D02*
X163588346Y-72831542D01*
X163588346Y-72831542D02*
X163445489Y-73402971D01*
X163445489Y-73402971D02*
X163445489Y-73831542D01*
X163445489Y-73831542D02*
X163588346Y-74402971D01*
X163588346Y-74402971D02*
X163731203Y-74688685D01*
X163731203Y-74688685D02*
X164016918Y-74974400D01*
X164016918Y-74974400D02*
X164445489Y-75117257D01*
X164445489Y-75117257D02*
X165159775Y-75117257D01*
X160445489Y-74831542D02*
X160588346Y-74974400D01*
X160588346Y-74974400D02*
X161016918Y-75117257D01*
X161016918Y-75117257D02*
X161302632Y-75117257D01*
X161302632Y-75117257D02*
X161731203Y-74974400D01*
X161731203Y-74974400D02*
X162016918Y-74688685D01*
X162016918Y-74688685D02*
X162159775Y-74402971D01*
X162159775Y-74402971D02*
X162302632Y-73831542D01*
X162302632Y-73831542D02*
X162302632Y-73402971D01*
X162302632Y-73402971D02*
X162159775Y-72831542D01*
X162159775Y-72831542D02*
X162016918Y-72545828D01*
X162016918Y-72545828D02*
X161731203Y-72260114D01*
X161731203Y-72260114D02*
X161302632Y-72117257D01*
X161302632Y-72117257D02*
X161016918Y-72117257D01*
X161016918Y-72117257D02*
X160588346Y-72260114D01*
X160588346Y-72260114D02*
X160445489Y-72402971D01*
X159874061Y-75402971D02*
X157588346Y-75402971D01*
X156874061Y-75117257D02*
X156874061Y-72117257D01*
X156874061Y-72117257D02*
X155874061Y-74260114D01*
X155874061Y-74260114D02*
X154874061Y-72117257D01*
X154874061Y-72117257D02*
X154874061Y-75117257D01*
X152874061Y-72117257D02*
X152302633Y-72117257D01*
X152302633Y-72117257D02*
X152016918Y-72260114D01*
X152016918Y-72260114D02*
X151731204Y-72545828D01*
X151731204Y-72545828D02*
X151588347Y-73117257D01*
X151588347Y-73117257D02*
X151588347Y-74117257D01*
X151588347Y-74117257D02*
X151731204Y-74688685D01*
X151731204Y-74688685D02*
X152016918Y-74974400D01*
X152016918Y-74974400D02*
X152302633Y-75117257D01*
X152302633Y-75117257D02*
X152874061Y-75117257D01*
X152874061Y-75117257D02*
X153159776Y-74974400D01*
X153159776Y-74974400D02*
X153445490Y-74688685D01*
X153445490Y-74688685D02*
X153588347Y-74117257D01*
X153588347Y-74117257D02*
X153588347Y-73117257D01*
X153588347Y-73117257D02*
X153445490Y-72545828D01*
X153445490Y-72545828D02*
X153159776Y-72260114D01*
X153159776Y-72260114D02*
X152874061Y-72117257D01*
X150731204Y-72117257D02*
X149016919Y-72117257D01*
X149874061Y-75117257D02*
X149874061Y-72117257D01*
X147445490Y-72117257D02*
X146874062Y-72117257D01*
X146874062Y-72117257D02*
X146588347Y-72260114D01*
X146588347Y-72260114D02*
X146302633Y-72545828D01*
X146302633Y-72545828D02*
X146159776Y-73117257D01*
X146159776Y-73117257D02*
X146159776Y-74117257D01*
X146159776Y-74117257D02*
X146302633Y-74688685D01*
X146302633Y-74688685D02*
X146588347Y-74974400D01*
X146588347Y-74974400D02*
X146874062Y-75117257D01*
X146874062Y-75117257D02*
X147445490Y-75117257D01*
X147445490Y-75117257D02*
X147731205Y-74974400D01*
X147731205Y-74974400D02*
X148016919Y-74688685D01*
X148016919Y-74688685D02*
X148159776Y-74117257D01*
X148159776Y-74117257D02*
X148159776Y-73117257D01*
X148159776Y-73117257D02*
X148016919Y-72545828D01*
X148016919Y-72545828D02*
X147731205Y-72260114D01*
X147731205Y-72260114D02*
X147445490Y-72117257D01*
X143159776Y-75117257D02*
X144159776Y-73688685D01*
X144874062Y-75117257D02*
X144874062Y-72117257D01*
X144874062Y-72117257D02*
X143731205Y-72117257D01*
X143731205Y-72117257D02*
X143445490Y-72260114D01*
X143445490Y-72260114D02*
X143302633Y-72402971D01*
X143302633Y-72402971D02*
X143159776Y-72688685D01*
X143159776Y-72688685D02*
X143159776Y-73117257D01*
X143159776Y-73117257D02*
X143302633Y-73402971D01*
X143302633Y-73402971D02*
X143445490Y-73545828D01*
X143445490Y-73545828D02*
X143731205Y-73688685D01*
X143731205Y-73688685D02*
X144874062Y-73688685D01*
X142588348Y-75402971D02*
X140302633Y-75402971D01*
X139588348Y-75117257D02*
X139588348Y-72117257D01*
X139588348Y-72117257D02*
X138874062Y-72117257D01*
X138874062Y-72117257D02*
X138445491Y-72260114D01*
X138445491Y-72260114D02*
X138159776Y-72545828D01*
X138159776Y-72545828D02*
X138016919Y-72831542D01*
X138016919Y-72831542D02*
X137874062Y-73402971D01*
X137874062Y-73402971D02*
X137874062Y-73831542D01*
X137874062Y-73831542D02*
X138016919Y-74402971D01*
X138016919Y-74402971D02*
X138159776Y-74688685D01*
X138159776Y-74688685D02*
X138445491Y-74974400D01*
X138445491Y-74974400D02*
X138874062Y-75117257D01*
X138874062Y-75117257D02*
X139588348Y-75117257D01*
X134874062Y-75117257D02*
X135874062Y-73688685D01*
X136588348Y-75117257D02*
X136588348Y-72117257D01*
X136588348Y-72117257D02*
X135445491Y-72117257D01*
X135445491Y-72117257D02*
X135159776Y-72260114D01*
X135159776Y-72260114D02*
X135016919Y-72402971D01*
X135016919Y-72402971D02*
X134874062Y-72688685D01*
X134874062Y-72688685D02*
X134874062Y-73117257D01*
X134874062Y-73117257D02*
X135016919Y-73402971D01*
X135016919Y-73402971D02*
X135159776Y-73545828D01*
X135159776Y-73545828D02*
X135445491Y-73688685D01*
X135445491Y-73688685D02*
X136588348Y-73688685D01*
X133588348Y-75117257D02*
X133588348Y-72117257D01*
X132588348Y-72117257D02*
X131588348Y-75117257D01*
X131588348Y-75117257D02*
X130588348Y-72117257D01*
X129588348Y-73545828D02*
X128588348Y-73545828D01*
X128159776Y-75117257D02*
X129588348Y-75117257D01*
X129588348Y-75117257D02*
X129588348Y-72117257D01*
X129588348Y-72117257D02*
X128159776Y-72117257D01*
X125159776Y-75117257D02*
X126159776Y-73688685D01*
X126874062Y-75117257D02*
X126874062Y-72117257D01*
X126874062Y-72117257D02*
X125731205Y-72117257D01*
X125731205Y-72117257D02*
X125445490Y-72260114D01*
X125445490Y-72260114D02*
X125302633Y-72402971D01*
X125302633Y-72402971D02*
X125159776Y-72688685D01*
X125159776Y-72688685D02*
X125159776Y-73117257D01*
X125159776Y-73117257D02*
X125302633Y-73402971D01*
X125302633Y-73402971D02*
X125445490Y-73545828D01*
X125445490Y-73545828D02*
X125731205Y-73688685D01*
X125731205Y-73688685D02*
X126874062Y-73688685D01*
M02*
